{"glyphs":{"0":{"ha":922,"x_min":-3,"x_max":924,"o":"m 533 999 q 837 854 750 999 q 879 464 924 710 q 706 90 832 207 q 378 -26 581 -26 q 90 120 183 -26 q 43 514 -3 267 q 219 883 90 768 q 533 999 347 999 m 424 272 q 563 494 521 272 q 497 700 600 700 q 412 647 443 700 q 360 475 381 594 q 360 323 340 374 q 424 272 381 272 z "},"1":{"ha":608,"x_min":56,"x_max":636,"o":"m 265 972 l 636 972 l 456 0 l 125 0 l 253 681 l 56 681 l 93 860 l 265 972 z "},"2":{"ha":899,"x_min":-42,"x_max":892,"o":"m 877 787 q 884 757 877 787 q 878 654 892 728 q 824 526 864 581 q 735 444 785 472 q 628 392 686 415 q 522 357 571 369 q 435 324 474 344 q 385 278 396 304 l 817 278 l 765 0 l -42 0 l -6 192 q 37 324 8 267 q 107 421 65 382 q 181 481 149 460 q 260 528 213 503 q 356 566 286 542 q 467 617 426 590 q 515 685 507 643 q 472 736 525 736 q 428 717 443 736 q 406 653 414 699 l 71 653 q 222 916 104 833 q 511 999 339 999 q 631 988 574 999 q 741 950 689 976 q 828 885 793 924 q 877 787 863 846 z "},"3":{"ha":864,"x_min":-37,"x_max":836,"o":"m 494 542 q 567 540 531 543 q 645 524 604 536 q 717 492 686 513 q 774 438 749 471 q 803 359 799 406 q 794 250 807 313 q 753 143 779 190 q 690 67 726 96 q 614 18 653 38 q 526 -10 575 -1 q 438 -23 478 -19 q 350 -26 399 -26 q 203 -6 274 -26 q 74 54 132 14 q -10 165 17 94 q -21 324 -37 235 l 314 324 q 357 236 296 236 q 424 315 408 236 q 410 376 431 357 q 328 394 390 394 l 132 394 l 163 561 l 401 685 l 403 694 l 71 694 l 122 972 l 836 972 l 781 674 l 496 550 l 494 542 z "},"4":{"ha":869,"x_min":-42,"x_max":842,"o":"m 750 440 l 842 440 l 790 163 l 701 163 l 671 0 l 326 0 l 357 163 l -42 163 l 4 414 l 332 972 l 671 972 l 368 440 l 444 440 l 576 667 l 792 667 l 750 440 z "},"5":{"ha":864,"x_min":-37,"x_max":825,"o":"m 636 600 q 783 492 742 576 q 794 278 825 408 q 346 -26 721 -26 q 199 -6 268 -26 q 72 53 129 14 q -11 163 15 93 q -21 324 -37 233 l 314 324 q 318 259 306 282 q 358 236 331 236 q 424 315 408 236 q 417 377 432 360 q 342 394 403 394 l 43 394 l 153 972 l 801 972 l 750 694 l 397 694 l 378 589 l 389 589 q 515 609 440 607 q 636 600 590 611 z "},"6":{"ha":922,"x_min":-24,"x_max":904,"o":"m 883 658 l 553 658 q 506 743 569 743 q 426 697 468 743 q 365 556 385 650 l 374 556 q 500 621 417 603 q 689 618 583 639 q 806 549 761 601 q 860 427 851 497 q 851 274 869 357 q 680 31 811 106 q 372 -25 549 -43 q 60 148 143 -1 q 47 564 -24 297 q 556 999 164 999 q 692 981 628 999 q 809 924 757 963 q 883 817 861 886 q 883 658 904 749 m 365 313 q 379 243 357 269 q 439 217 401 217 q 503 240 478 217 q 536 304 529 264 q 523 367 543 340 q 464 394 503 394 q 401 374 428 394 q 365 313 374 353 z "},"7":{"ha":838,"x_min":69,"x_max":893,"o":"m 121 972 l 893 972 q 836 668 858 786 q 592 411 710 596 q 447 0 474 226 l 103 0 q 224 412 125 242 q 465 678 322 582 l 468 694 l 69 694 l 121 972 z "},"8":{"ha":890,"x_min":-39,"x_max":894,"o":"m 668 500 q 828 235 881 451 q 671 42 799 110 q 356 -26 543 -26 q 74 54 186 -26 q -26 264 -39 135 q 164 514 -12 428 l 167 524 q 96 754 63 618 q 235 944 129 889 q 507 999 340 999 q 796 923 697 999 q 871 711 894 847 q 803 578 858 633 q 671 510 749 524 l 668 500 m 485 772 q 416 754 443 772 q 382 704 389 736 q 396 644 375 669 q 463 618 417 618 q 560 686 547 618 q 547 747 567 722 q 485 772 528 772 m 390 201 q 468 222 436 201 q 508 283 500 243 q 492 354 515 324 q 419 385 468 385 q 297 301 314 385 q 314 231 289 261 q 390 201 339 201 z "},"9":{"ha":922,"x_min":18,"x_max":946,"o":"m 233 356 q 82 478 125 381 q 69 700 39 575 q 170 885 97 813 q 339 983 243 957 q 550 997 435 1008 q 863 825 779 974 q 875 410 946 676 q 367 -26 758 -26 q 230 -8 294 -26 q 113 49 165 11 q 40 156 61 88 q 39 315 18 225 l 369 315 q 417 231 353 231 q 496 277 454 231 q 557 419 538 324 l 549 419 q 422 353 504 372 q 233 356 339 335 m 483 757 q 419 734 444 757 q 386 671 393 711 q 399 606 379 633 q 458 579 419 579 q 522 600 494 579 q 557 661 549 621 q 542 731 564 704 q 483 757 519 757 z "}," ":{"ha":389,"x_min":0,"x_max":0,"o":""},"!":{"ha":458,"x_min":-10,"x_max":500,"o":"m 194 321 q 316 263 275 321 q 344 131 357 206 q 276 17 331 60 q 151 -26 221 -26 q 33 35 76 -26 q 4 169 -10 96 q 70 280 18 239 q 194 321 122 321 m 129 972 l 500 972 l 358 360 l 40 360 l 129 972 z "},"\"":{"ha":700,"x_min":69,"x_max":742,"o":"m 140 972 l 406 972 l 335 590 l 69 590 l 140 972 m 478 972 l 742 972 l 671 590 l 407 590 l 478 972 z "},"#":{"ha":942,"x_min":-56,"x_max":1007,"o":"m 940 529 l 782 529 l 757 443 l 917 443 l 850 204 l 689 204 l 631 0 l 379 0 l 438 204 l 354 204 l 296 0 l 44 0 l 103 204 l -56 204 l 11 443 l 171 443 l 196 529 l 35 529 l 101 768 l 264 768 l 322 972 l 574 972 l 515 768 l 599 768 l 657 972 l 908 972 l 850 768 l 1007 768 l 940 529 m 506 443 l 531 529 l 447 529 l 422 443 l 506 443 z "},"$":{"ha":1015,"x_min":-3,"x_max":1010,"o":"m 994 665 l 651 665 q 639 722 658 701 q 586 742 619 742 q 507 697 515 742 q 507 681 506 689 q 515 667 508 674 q 527 656 521 661 q 545 644 533 650 q 567 635 557 639 q 593 625 576 631 q 620 616 610 619 q 650 607 631 613 q 681 597 669 601 q 858 515 806 557 q 936 276 964 431 q 790 54 908 129 q 485 -25 671 -21 l 458 -169 l 313 -169 l 342 -18 q 78 105 160 7 q 19 328 -3 203 l 367 328 q 442 242 351 247 q 540 282 535 233 q 518 333 543 311 q 438 374 493 356 q 181 508 254 432 q 133 724 107 585 q 529 994 178 964 l 557 1140 l 701 1140 l 675 996 q 801 969 740 990 q 912 909 861 947 q 986 808 963 871 q 994 665 1010 744 z "},"%":{"ha":1482,"x_min":67,"x_max":1415,"o":"m 1153 513 q 1349 422 1283 513 q 1393 211 1415 332 q 1287 37 1372 100 q 1072 -26 1201 -26 q 876 63 946 -26 q 828 272 806 151 q 1153 513 874 513 m 1190 236 q 1181 299 1197 272 q 1122 326 1164 326 q 1063 306 1086 326 q 1032 250 1039 285 q 1044 188 1025 214 q 1097 161 1063 161 q 1157 182 1131 161 q 1190 236 1183 203 m 1004 972 l 1215 972 l 475 0 l 264 0 l 1004 972 m 654 696 q 547 522 633 585 q 332 460 461 460 q 136 549 206 460 q 89 757 67 638 q 414 999 132 999 q 610 908 543 999 q 654 696 676 817 m 293 735 q 305 672 286 699 q 358 646 324 646 q 418 667 392 646 q 450 721 444 688 q 440 785 457 758 q 382 811 424 811 q 323 790 346 811 q 293 735 300 769 z "},"&":{"ha":1110,"x_min":-21,"x_max":1110,"o":"m 560 626 l 1110 626 l 1064 379 l 915 379 q 910 354 914 372 q 906 326 907 336 q 864 187 890 244 q 786 78 838 129 q 647 0 735 26 q 433 -26 558 -26 q 96 67 213 -26 q 6 297 -21 160 q 67 428 22 383 q 204 500 113 472 l 207 510 q 118 619 140 560 q 113 767 96 678 q 260 947 136 896 q 610 999 385 999 q 731 989 674 999 q 842 955 788 979 q 933 894 896 931 q 985 798 969 857 q 986 665 1000 739 l 643 665 q 630 722 650 701 q 569 742 610 742 q 504 731 528 742 q 474 688 481 721 q 493 640 468 654 q 560 626 518 626 m 575 342 q 578 361 576 349 q 582 379 581 374 l 494 379 q 419 366 447 379 q 383 314 390 353 q 399 258 375 274 q 469 242 424 242 q 575 342 557 242 z "},"'":{"ha":364,"x_min":69,"x_max":406,"o":"m 142 972 l 406 972 l 335 590 l 69 590 l 142 972 z "},"(":{"ha":628,"x_min":0,"x_max":656,"o":"m 335 475 q 522 -44 274 142 l 390 -236 q 94 81 188 -114 q 39 483 0 276 q 194 833 76 688 q 524 1104 311 978 l 656 914 q 538 821 579 857 q 449 732 496 785 q 376 617 403 679 q 335 475 350 556 z "},")":{"ha":628,"x_min":-28,"x_max":628,"o":"m 293 394 q 104 914 354 726 l 236 1104 q 534 789 440 983 q 589 386 628 594 q 433 36 550 182 q 104 -236 317 -110 l -28 -44 q 90 49 49 13 q 178 138 132 85 q 251 252 225 190 q 293 394 278 314 z "},"*":{"ha":649,"x_min":83,"x_max":635,"o":"m 635 625 l 497 628 l 569 515 l 376 432 l 332 569 l 232 465 l 94 624 l 208 693 l 83 751 l 192 932 l 306 842 l 321 988 l 525 942 l 475 803 l 617 835 l 635 625 z "},"+":{"ha":771,"x_min":0,"x_max":729,"o":"m 729 513 l 682 261 l 458 261 l 418 46 l 167 46 l 207 261 l 0 261 l 47 513 l 254 513 l 294 728 l 544 728 l 506 513 l 729 513 z "},",":{"ha":481,"x_min":-111,"x_max":369,"o":"m 369 164 l 364 135 l 140 -218 l -111 -218 l 35 164 l 369 164 z "},"-":{"ha":771,"x_min":0,"x_max":729,"o":"m 47 513 l 729 513 l 682 261 l 0 261 l 47 513 z "},".":{"ha":425,"x_min":-37,"x_max":329,"o":"m 167 321 q 288 263 247 321 q 317 131 329 206 q 249 17 303 60 q 124 -26 194 -26 q 6 35 49 -26 q -24 169 -37 96 q 43 280 -10 239 q 167 321 96 321 z "},"/":{"ha":575,"x_min":-83,"x_max":631,"o":"m 393 1039 l 631 1039 l 154 -132 l -83 -132 l 393 1039 z "},":":{"ha":417,"x_min":-37,"x_max":413,"o":"m 167 321 q 288 263 247 321 q 315 131 329 206 q 247 17 301 60 q 124 -26 193 -26 q 6 35 49 -26 q -24 169 -37 96 q 42 280 -11 239 q 167 321 94 321 m 207 460 q 89 521 132 460 q 60 656 46 582 q 125 766 72 725 q 250 807 178 807 q 372 749 331 807 q 399 617 413 692 q 331 503 385 546 q 207 460 276 460 z "},";":{"ha":478,"x_min":-111,"x_max":432,"o":"m 35 164 l 368 164 l 364 135 l 140 -218 l -111 -218 l 35 164 m 225 460 q 108 521 150 460 q 78 656 65 582 q 144 766 92 725 q 268 807 197 807 q 390 749 349 807 q 418 617 432 690 q 350 503 404 546 q 225 460 296 460 z "},"<":{"ha":889,"x_min":14,"x_max":875,"o":"m 736 69 l 14 229 l 93 654 l 875 814 l 822 522 l 357 442 l 351 415 l 792 347 l 736 69 z "},"=":{"ha":826,"x_min":0,"x_max":785,"o":"m 0 111 l 47 363 l 729 363 l 682 111 l 0 111 m 103 663 l 785 663 l 738 411 l 57 411 l 103 663 z "},">":{"ha":904,"x_min":0,"x_max":863,"o":"m 139 814 l 863 654 l 782 229 l 0 69 l 54 361 l 518 442 l 524 468 l 85 536 l 139 814 z "},"?":{"ha":874,"x_min":56,"x_max":881,"o":"m 414 321 q 536 263 494 321 q 564 131 578 204 q 496 17 550 60 q 372 -26 442 -26 q 254 35 297 -26 q 225 169 211 96 q 290 280 238 239 q 414 321 343 321 m 531 999 q 630 989 581 999 q 729 956 679 979 q 814 896 779 932 q 865 802 849 860 q 867 672 881 744 q 778 485 844 547 q 625 424 713 424 l 561 424 l 550 360 l 279 360 l 325 604 l 404 604 q 475 619 458 604 q 501 685 492 635 q 492 723 506 710 q 456 736 479 736 q 414 715 429 736 q 390 649 399 693 l 56 649 q 531 999 119 999 z "},"@":{"ha":1856,"x_min":-1,"x_max":1842,"o":"m 1038 1132 q 1474 1047 1288 1132 q 1751 796 1660 963 q 1800 407 1842 629 q 1654 79 1758 185 q 1367 -26 1550 -26 q 1060 164 1138 -26 q 929 30 1015 86 q 740 -26 843 -26 q 477 96 568 -26 q 421 410 386 218 q 568 657 453 579 q 844 728 683 735 q 1028 646 958 722 l 1038 646 l 1050 715 l 1342 715 q 1281 392 1296 475 q 1290 299 1269 331 q 1358 267 1311 267 q 1503 411 1476 267 q 1408 724 1542 619 q 1010 828 1275 828 q 900 826 949 828 q 782 813 851 824 q 658 785 713 803 q 544 734 604 768 q 442 653 485 700 q 367 534 400 606 q 321 374 333 463 q 434 17 289 151 q 849 -97 579 -117 q 823 -242 840 -147 q 796 -386 806 -336 q 459 -331 613 -386 q 200 -174 306 -275 q 47 80 94 -72 q 24 414 -1 232 q 195 817 57 654 q 545 1056 333 981 q 1038 1132 757 1132 m 847 239 q 933 268 900 239 q 975 347 967 297 q 957 435 985 396 q 871 475 929 475 q 732 367 753 475 q 753 277 722 315 q 847 239 785 239 z "},"A":{"ha":1288,"x_min":-62,"x_max":1169,"o":"m 772 0 l 751 154 l 433 154 l 361 0 l -62 0 l 464 972 l 967 972 l 1169 0 l 772 0 m 571 444 l 710 444 l 682 642 l 664 642 l 571 444 z "},"B":{"ha":1031,"x_min":-28,"x_max":1017,"o":"m 999 725 q 933 586 988 643 q 821 517 878 529 l 818 506 q 928 422 892 490 q 947 267 965 353 q 583 0 890 0 l -28 0 l 153 972 l 722 972 q 944 910 871 972 q 999 725 1017 849 m 594 317 q 577 368 601 353 q 518 383 553 383 l 374 383 l 349 249 l 501 249 q 565 264 543 249 q 594 317 588 279 m 611 679 q 601 722 617 710 q 547 735 585 735 l 439 735 l 418 622 l 535 622 q 611 679 599 622 z "},"C":{"ha":1169,"x_min":15,"x_max":1164,"o":"m 629 649 q 453 506 490 649 q 470 377 433 431 q 576 324 507 324 q 664 347 629 324 q 728 421 699 369 l 1121 421 q 510 -26 1006 -26 q 306 11 401 -26 q 143 116 211 49 q 45 287 75 183 q 39 513 15 390 q 235 868 82 738 q 629 999 389 999 q 1015 873 865 999 q 1138 551 1164 747 l 751 551 q 716 624 749 599 q 629 649 683 650 z "},"D":{"ha":1104,"x_min":-28,"x_max":1107,"o":"m 613 972 q 997 837 886 972 q 1064 469 1107 701 q 865 108 1017 215 q 450 0 713 0 l -28 0 l 153 972 l 613 972 m 681 486 q 543 640 710 640 l 461 640 l 404 333 l 475 333 q 681 486 650 333 z "},"E":{"ha":933,"x_min":-28,"x_max":975,"o":"m 921 682 l 469 682 l 458 618 l 865 618 l 817 354 l 408 354 l 397 292 l 849 292 l 794 0 l -28 0 l 153 972 l 975 972 l 921 682 z "},"F":{"ha":956,"x_min":-28,"x_max":997,"o":"m 938 656 l 464 656 l 449 579 l 844 579 l 793 301 l 397 301 l 342 0 l -28 0 l 151 972 l 997 972 l 938 656 z "},"G":{"ha":1207,"x_min":15,"x_max":1172,"o":"m 629 649 q 453 506 493 649 q 462 356 429 415 q 576 296 494 296 q 676 322 639 296 l 681 343 l 601 343 l 633 519 l 1150 519 l 1053 0 l 815 0 l 822 43 q 519 -26 692 -26 q 315 11 411 -26 q 148 116 218 49 q 47 287 78 183 q 39 513 15 390 q 235 868 82 738 q 629 999 389 999 q 909 944 783 999 q 1103 785 1035 889 q 1154 551 1172 682 l 751 551 q 717 624 749 599 q 629 649 685 650 z "},"H":{"ha":1144,"x_min":-28,"x_max":1172,"o":"m 803 972 l 1172 972 l 992 0 l 622 0 l 682 321 l 403 321 l 343 0 l -28 0 l 153 972 l 524 972 l 464 651 l 743 651 l 803 972 z "},"I":{"ha":496,"x_min":-28,"x_max":524,"o":"m 153 972 l 524 972 l 343 0 l -28 0 l 153 972 z "},"J":{"ha":1006,"x_min":-14,"x_max":1033,"o":"m 310 972 l 1033 972 q 933 433 989 731 q 769 87 890 200 q 408 -26 649 -26 q 100 98 214 -26 q 24 422 -14 222 l 394 422 q 406 347 385 374 q 469 319 426 319 q 563 433 542 319 q 601 642 575 489 l 247 642 l 310 972 z "},"K":{"ha":1101,"x_min":-28,"x_max":1129,"o":"m 1129 972 l 813 489 l 990 0 l 594 0 l 485 321 l 401 321 l 343 0 l -28 0 l 153 972 l 524 972 l 464 651 l 536 651 l 707 972 l 1129 972 z "},"L":{"ha":974,"x_min":-28,"x_max":904,"o":"m 404 331 l 904 331 l 843 0 l -28 0 l 153 972 l 524 972 l 404 331 z "},"M":{"ha":1576,"x_min":-28,"x_max":1604,"o":"m 982 972 l 1604 972 l 1424 0 l 1054 0 l 1172 642 l 1165 642 l 903 0 l 482 0 l 469 642 l 463 642 l 343 0 l -28 0 l 153 972 l 733 972 l 754 410 l 764 410 l 982 972 z "},"N":{"ha":1192,"x_min":-28,"x_max":1219,"o":"m 1219 972 l 1039 0 l 663 0 l 439 483 l 432 483 l 342 0 l -28 0 l 153 972 l 526 972 l 753 490 l 758 490 l 849 972 l 1219 972 z "},"O":{"ha":1161,"x_min":15,"x_max":1169,"o":"m 640 999 q 1030 847 890 999 q 1122 444 1169 696 q 924 108 1085 243 q 526 -26 763 -26 q 303 8 403 -26 q 136 110 204 43 q 42 281 68 176 q 40 515 15 385 q 240 869 81 740 q 640 999 399 999 m 739 475 q 713 599 753 549 q 600 650 672 650 q 483 609 528 650 q 425 496 438 568 q 452 375 411 428 q 560 322 493 322 q 677 360 629 322 q 739 475 725 399 z "},"P":{"ha":1010,"x_min":-28,"x_max":1019,"o":"m 621 972 q 919 869 818 972 q 988 596 1019 765 q 840 313 951 407 q 514 219 729 219 l 383 219 l 343 0 l -28 0 l 153 972 l 621 972 m 625 596 q 611 651 631 635 q 539 668 592 668 l 467 668 l 440 524 l 510 524 q 592 540 565 524 q 625 596 619 556 z "},"Q":{"ha":1163,"x_min":17,"x_max":1171,"o":"m 1124 444 q 928 111 1085 243 l 1015 -132 l 618 -132 l 588 -24 q 528 -26 549 -26 q 305 8 404 -26 q 138 110 206 43 q 43 281 69 176 q 40 515 17 385 q 241 869 82 740 q 642 999 400 999 q 1031 847 892 999 q 1124 444 1171 696 m 426 496 q 453 375 413 428 q 560 322 494 322 q 678 360 629 322 q 740 475 726 399 q 714 599 754 549 q 600 650 674 650 q 483 609 528 650 q 426 496 439 568 z "},"R":{"ha":1094,"x_min":-28,"x_max":1035,"o":"m 1003 615 q 853 344 969 428 l 978 0 l 581 0 l 500 260 l 390 260 l 342 0 l -28 0 l 153 972 l 656 972 q 935 878 836 972 q 1003 615 1035 785 m 561 694 l 471 694 l 442 538 l 532 538 q 642 615 626 538 q 626 675 649 656 q 561 694 604 694 z "},"S":{"ha":1017,"x_min":-7,"x_max":1013,"o":"m 460 -26 q 105 78 217 -26 q 19 328 -7 183 l 367 328 q 442 242 353 247 q 540 282 535 233 q 518 333 543 311 q 438 374 493 356 q 181 508 254 432 q 133 724 107 585 q 188 847 146 794 q 280 927 229 899 q 397 972 331 956 q 516 994 464 989 q 624 999 568 999 q 761 981 693 999 q 890 925 829 963 q 982 820 951 888 q 996 665 1013 753 l 651 665 q 639 722 658 701 q 586 742 619 742 q 507 697 515 742 q 507 681 506 689 q 515 667 508 674 q 527 656 521 661 q 545 644 533 650 q 567 635 557 639 q 593 625 576 631 q 620 616 610 619 q 650 607 631 613 q 681 597 669 601 q 858 515 806 557 q 936 276 964 431 q 782 48 908 122 q 460 -26 656 -26 z "},"T":{"ha":1035,"x_min":56,"x_max":1090,"o":"m 1090 972 l 1028 642 l 729 642 l 611 0 l 240 0 l 360 642 l 56 642 l 117 972 l 1090 972 z "},"U":{"ha":1051,"x_min":-40,"x_max":1079,"o":"m 708 972 l 1079 972 q 982 446 1038 749 q 924 244 960 326 q 828 98 889 161 q 674 4 768 35 q 447 -26 579 -26 q 49 446 -40 -26 l 147 972 l 515 972 q 415 440 431 522 q 489 319 394 319 q 610 439 586 319 l 708 972 z "},"V":{"ha":1306,"x_min":111,"x_max":1354,"o":"m 896 972 l 1354 972 l 853 0 l 315 0 l 111 972 l 542 972 l 626 331 l 639 331 l 896 972 z "},"W":{"ha":1783,"x_min":111,"x_max":1846,"o":"m 1422 972 l 1846 972 l 1378 0 l 928 0 l 885 483 l 874 483 l 646 0 l 208 0 l 111 972 l 508 972 l 533 411 l 539 411 l 774 972 l 1157 972 l 1185 411 l 1190 411 l 1422 972 z "},"X":{"ha":1143,"x_min":-28,"x_max":1143,"o":"m 1143 972 l 871 506 l 1038 0 l 626 0 l 560 321 l 528 321 l 410 0 l -28 0 l 257 506 l 106 972 l 503 972 l 574 651 l 596 651 l 719 972 l 1143 972 z "},"Y":{"ha":1099,"x_min":111,"x_max":1161,"o":"m 1161 972 l 714 272 l 663 0 l 293 0 l 343 272 l 111 972 l 496 972 l 569 604 l 581 604 l 738 972 l 1161 972 z "},"Z":{"ha":990,"x_min":-42,"x_max":1018,"o":"m 921 331 l 858 0 l -42 0 l 28 371 l 469 631 l 471 639 l 119 639 l 182 972 l 1018 972 l 947 586 l 506 342 l 503 331 l 921 331 z "},"[":{"ha":578,"x_min":-28,"x_max":619,"o":"m 578 814 l 401 814 l 268 93 l 443 93 l 401 -132 l -28 -132 l 190 1039 l 619 1039 l 578 814 z "},"\\":{"ha":853,"x_min":97,"x_max":811,"o":"m 335 1039 l 811 -132 l 574 -132 l 97 1039 l 335 1039 z "},"]":{"ha":579,"x_min":-42,"x_max":607,"o":"m 0 93 l 176 93 l 311 814 l 135 814 l 176 1039 l 607 1039 l 389 -132 l -42 -132 l 0 93 z "},"^":{"ha":921,"x_min":83,"x_max":907,"o":"m 563 683 l 542 840 l 521 840 l 428 683 l 83 683 l 349 972 l 775 972 l 907 683 l 563 683 z "},"_":{"ha":785,"x_min":-83,"x_max":646,"o":"m -36 -14 l 646 -14 l 599 -265 l -83 -265 l -36 -14 z "},"`":{"ha":446,"x_min":90,"x_max":474,"o":"m 433 1053 l 474 764 l 222 764 l 90 1053 l 433 1053 z "},"a":{"ha":1342,"x_min":-62,"x_max":1224,"o":"m 813 0 l 792 154 l 461 154 l 389 0 l -62 0 l 490 972 l 1007 972 l 1224 0 l 813 0 m 599 444 l 750 444 l 722 642 l 692 642 l 599 444 z "},"b":{"ha":1083,"x_min":-28,"x_max":1069,"o":"m 1051 724 q 985 585 1040 643 q 874 515 931 528 l 871 506 q 981 420 944 489 q 1000 265 1018 351 q 636 0 943 0 l -28 0 l 153 972 l 775 972 q 997 910 924 972 q 1051 724 1069 847 m 647 315 q 630 367 654 351 q 571 383 606 383 l 374 383 l 349 249 l 554 249 q 618 263 596 249 q 647 315 640 278 m 664 679 q 653 722 669 708 q 600 735 636 735 l 439 735 l 418 622 l 588 622 q 664 679 653 622 z "},"c":{"ha":1236,"x_min":14,"x_max":1222,"o":"m 603 324 q 782 421 725 324 l 1188 421 q 969 92 1133 211 q 539 -26 804 -26 q 331 10 431 -26 q 158 113 232 47 q 49 282 83 179 q 38 506 14 385 q 246 867 81 735 q 656 999 411 999 q 941 944 810 999 q 1147 785 1072 889 q 1204 551 1222 681 l 804 551 q 758 622 801 596 q 656 649 714 649 q 524 611 578 649 q 453 506 471 574 q 478 377 433 431 q 603 324 522 324 z "},"d":{"ha":1171,"x_min":-28,"x_max":1174,"o":"m 679 972 q 1063 837 953 972 q 1131 469 1174 701 q 931 108 1083 215 q 515 0 779 0 l -28 0 l 153 972 l 679 972 m 746 486 q 608 639 775 639 l 461 639 l 404 332 l 542 332 q 746 486 718 332 z "},"e":{"ha":986,"x_min":-28,"x_max":1028,"o":"m 974 681 l 468 681 l 457 618 l 918 618 l 868 354 l 408 354 l 396 290 l 900 290 l 846 0 l -28 0 l 153 972 l 1028 972 l 974 681 z "},"f":{"ha":1010,"x_min":-28,"x_max":1051,"o":"m 992 654 l 464 654 l 450 579 l 899 579 l 847 301 l 399 301 l 343 0 l -28 0 l 153 972 l 1051 972 l 992 654 z "},"g":{"ha":1239,"x_min":14,"x_max":1225,"o":"m 654 649 q 523 611 576 649 q 451 506 469 574 q 469 356 428 417 q 601 296 511 296 q 721 326 667 296 l 724 343 l 654 343 l 688 519 l 1203 519 l 1106 0 l 868 0 l 878 56 q 544 -26 729 -26 q 336 11 436 -26 q 160 116 236 49 q 49 288 85 183 q 38 513 14 392 q 242 867 79 736 q 654 999 404 999 q 942 944 810 999 q 1149 785 1074 889 q 1207 551 1225 681 l 804 551 q 756 622 800 596 q 654 649 713 649 z "},"h":{"ha":1250,"x_min":-28,"x_max":1278,"o":"m 908 972 l 1278 972 l 1097 0 l 728 0 l 788 321 l 401 321 l 342 0 l -28 0 l 153 972 l 522 972 l 464 651 l 849 651 l 908 972 z "},"i":{"ha":807,"x_min":-28,"x_max":835,"o":"m 774 642 l 621 642 l 564 331 l 715 331 l 654 0 l -28 0 l 35 331 l 193 331 l 251 642 l 93 642 l 154 972 l 835 972 l 774 642 z "},"j":{"ha":1008,"x_min":-11,"x_max":1036,"o":"m 272 971 l 1036 971 q 936 432 990 729 q 772 87 893 200 q 410 -26 650 -26 q 85 80 181 -26 q 24 374 -11 186 q 51 524 44 482 l 418 524 q 406 456 415 504 q 396 407 396 408 q 471 318 381 318 q 533 347 513 318 q 565 432 554 376 q 574 473 568 443 q 588 553 579 503 q 604 640 597 603 l 211 640 l 272 971 z "},"k":{"ha":1168,"x_min":-28,"x_max":1196,"o":"m 1196 972 l 879 488 l 1057 0 l 661 0 l 551 321 l 403 321 l 343 0 l -28 0 l 153 972 l 524 972 l 464 651 l 594 651 l 774 972 l 1196 972 z "},"l":{"ha":1014,"x_min":-28,"x_max":944,"o":"m 404 331 l 944 331 l 883 0 l -28 0 l 153 972 l 524 972 l 404 331 z "},"m":{"ha":1615,"x_min":-28,"x_max":1643,"o":"m 1007 972 l 1643 972 l 1463 0 l 1093 0 l 1213 642 l 1192 642 l 928 0 l 496 0 l 482 642 l 461 642 l 343 0 l -28 0 l 153 972 l 760 972 l 767 410 l 789 410 l 1007 972 z "},"n":{"ha":1218,"x_min":-28,"x_max":1246,"o":"m 1246 972 l 1065 0 l 690 0 l 453 483 l 432 483 l 343 0 l -28 0 l 153 972 l 528 972 l 767 489 l 786 489 l 876 972 l 1246 972 z "},"o":{"ha":1242,"x_min":7,"x_max":1226,"o":"m 681 999 q 917 960 810 999 q 1095 851 1024 921 q 1197 675 1167 781 q 1203 444 1226 569 q 997 108 1165 242 q 567 -26 828 -26 q 258 33 388 -26 q 68 217 129 93 q 39 515 7 342 q 244 872 82 744 q 681 999 407 999 m 806 475 q 776 601 819 551 q 639 650 733 650 q 438 496 467 650 q 470 374 425 425 q 600 322 515 322 q 806 475 778 322 z "},"p":{"ha":1061,"x_min":-28,"x_max":1071,"o":"m 672 972 q 970 869 869 972 q 1039 596 1071 765 q 893 313 1004 407 q 567 219 782 219 l 383 219 l 342 0 l -28 0 l 153 972 l 672 972 m 678 596 q 664 651 683 635 q 592 668 644 668 l 467 668 l 439 524 l 561 524 q 644 540 617 524 q 678 596 671 556 z "},"q":{"ha":1242,"x_min":-8,"x_max":1226,"o":"m 1203 444 q 1006 115 1165 242 l 1094 -132 l 697 -132 l 665 -21 q 567 -26 604 -26 q 142 115 292 -26 q 39 515 -8 257 q 244 872 82 744 q 681 999 407 999 q 917 960 810 999 q 1095 851 1024 921 q 1197 675 1167 781 q 1203 444 1226 569 m 438 496 q 470 374 425 425 q 600 322 515 322 q 806 475 778 322 q 778 601 821 551 q 640 650 735 650 q 438 496 467 650 z "},"r":{"ha":1149,"x_min":-28,"x_max":1088,"o":"m 1057 615 q 906 344 1022 428 l 1032 0 l 635 0 l 554 260 l 392 260 l 343 0 l -28 0 l 153 972 l 708 972 q 989 878 890 972 q 1057 615 1088 785 m 472 694 l 443 538 l 586 538 q 660 556 633 538 q 694 615 686 574 q 615 694 710 694 l 472 694 z "},"s":{"ha":1054,"x_min":-7,"x_max":1051,"o":"m 1035 665 l 692 665 q 667 720 697 700 q 597 742 638 740 q 492 697 501 746 q 501 671 489 683 q 538 649 513 658 q 588 631 564 639 q 649 614 613 624 q 706 597 686 604 q 875 533 835 556 q 989 276 1021 450 q 485 -26 933 -26 q 116 80 239 -26 q 19 328 -7 186 l 365 328 q 388 265 358 283 q 468 242 417 246 q 579 282 571 233 q 565 331 585 315 q 464 374 544 347 q 306 433 369 404 q 192 503 243 463 q 124 599 142 544 q 118 724 106 653 q 636 999 169 999 q 778 981 706 999 q 916 925 850 963 q 1017 820 982 888 q 1035 665 1051 753 z "},"t":{"ha":1086,"x_min":56,"x_max":1142,"o":"m 1142 972 l 1081 642 l 756 642 l 638 0 l 267 0 l 386 642 l 56 642 l 117 972 l 1142 972 z "},"u":{"ha":1156,"x_min":3,"x_max":1183,"o":"m 813 972 l 1183 972 q 1085 446 1142 749 q 1024 244 1063 328 q 917 97 985 160 q 745 4 849 35 q 499 -26 642 -26 q 119 90 236 -26 q 47 446 3 206 l 144 972 l 513 972 q 415 444 431 526 q 441 356 406 392 q 539 319 476 319 q 657 352 611 319 q 714 442 703 385 l 813 972 z "},"v":{"ha":1363,"x_min":111,"x_max":1411,"o":"m 940 972 l 1411 972 l 897 0 l 315 0 l 111 972 l 542 972 l 626 331 l 685 331 l 940 972 z "},"w":{"ha":1901,"x_min":111,"x_max":1964,"o":"m 1526 972 l 1964 972 l 1496 0 l 993 0 l 949 483 l 913 483 l 683 0 l 208 0 l 111 972 l 507 972 l 533 411 l 564 411 l 800 972 l 1235 972 l 1264 411 l 1294 411 l 1526 972 z "},"x":{"ha":1196,"x_min":-28,"x_max":1196,"o":"m 679 0 l 600 321 l 540 321 l 410 0 l -28 0 l 271 506 l 106 972 l 503 972 l 588 651 l 635 651 l 772 972 l 1196 972 l 911 506 l 1090 0 l 679 0 z "},"y":{"ha":1178,"x_min":111,"x_max":1240,"o":"m 1240 972 l 765 272 l 715 0 l 318 0 l 369 272 l 111 972 l 494 972 l 592 618 l 631 618 l 817 972 l 1240 972 z "},"z":{"ha":1043,"x_min":-42,"x_max":1071,"o":"m 972 331 l 911 0 l -42 0 l 26 371 l 481 618 l 485 639 l 119 639 l 182 972 l 1071 972 l 999 586 l 547 354 l 543 331 l 972 331 z "},"{":{"ha":568,"x_min":0,"x_max":638,"o":"m 196 826 q 232 945 208 897 q 288 1023 256 993 q 374 1069 321 1053 q 488 1092 428 1086 q 638 1097 547 1097 l 592 849 q 507 824 532 849 q 468 726 482 799 q 460 691 465 717 q 451 640 456 665 q 446 610 447 614 q 363 453 426 510 q 389 301 406 396 q 367 183 379 256 q 366 87 351 111 q 446 63 381 63 l 399 -186 q 102 -131 178 -186 q 58 93 26 -76 q 86 242 78 196 q 76 340 100 313 q 0 368 53 368 l 32 543 q 119 569 86 543 q 165 665 151 594 q 196 826 171 694 z "},"|":{"ha":414,"x_min":-28,"x_max":442,"o":"m 190 1039 l 442 1039 l 224 -132 l -28 -132 l 190 1039 z "},"}":{"ha":554,"x_min":-97,"x_max":540,"o":"m 540 543 l 508 368 q 422 342 456 368 q 375 244 389 315 q 363 176 375 242 q 346 83 350 110 q 308 -35 332 13 q 252 -113 285 -83 q 166 -159 219 -143 q 53 -181 113 -175 q -97 -186 -7 -186 l -51 63 q 33 88 8 63 q 74 183 58 113 l 94 301 q 179 457 114 400 q 153 610 133 514 q 175 726 167 693 q 174 825 189 801 q 96 849 160 849 l 142 1097 q 439 1042 363 1097 q 482 818 515 988 q 454 668 469 750 q 465 570 442 597 q 540 543 488 543 z "},"~":{"ha":806,"x_min":-28,"x_max":806,"o":"m 524 268 q 429 282 474 268 q 360 312 385 296 q 310 342 335 328 q 269 356 285 356 q 236 341 247 356 q 219 286 225 326 l -28 286 q 89 522 0 435 q 289 608 178 608 q 394 589 349 608 q 472 549 440 569 q 531 529 504 529 q 576 589 564 529 l 806 589 q 707 358 779 449 q 524 268 635 268 z "},"¡":{"ha":431,"x_min":-139,"x_max":371,"o":"m 210 558 q 328 497 285 558 q 357 363 371 436 q 290 252 343 293 q 167 211 238 211 q 44 269 86 211 q 17 401 3 328 q 85 515 31 472 q 210 558 139 558 m -139 -440 l 3 172 l 321 172 l 232 -440 l -139 -440 z "},"¢":{"ha":878,"x_min":-35,"x_max":850,"o":"m 447 478 q 358 449 396 478 q 307 372 321 421 q 324 277 293 317 q 408 238 356 238 q 531 308 489 238 l 821 308 q 421 -24 740 -1 l 394 -169 l 249 -169 l 278 -17 q 48 117 131 11 q -6 376 -35 222 q 133 630 24 535 q 417 735 242 725 l 444 883 l 590 883 l 561 726 q 773 614 696 700 q 833 406 850 528 l 547 406 q 517 458 546 439 q 447 478 489 478 z "},"£":{"ha":1001,"x_min":-56,"x_max":983,"o":"m 444 278 l 931 278 l 879 0 l -56 0 l -4 278 l 75 278 q 79 303 76 289 q 86 342 82 317 q 94 386 90 367 l 15 386 l 43 532 l 122 532 l 143 644 q 588 999 214 999 q 740 979 668 999 q 870 921 811 960 q 956 813 929 882 q 967 654 983 744 l 632 654 q 581 736 647 736 q 513 639 531 736 q 492 532 507 608 l 851 532 l 824 386 l 465 386 l 444 278 z "},"¤":{"ha":885,"x_min":-56,"x_max":871,"o":"m 758 317 q 683 156 742 225 l 792 36 l 689 -67 l 569 67 q 358 24 476 24 q 189 69 263 24 l 47 -67 l -56 36 l 89 174 q 57 393 33 272 q 129 561 75 494 l 24 678 l 126 781 l 244 650 q 460 693 335 693 q 629 647 557 693 l 768 781 l 871 678 l 728 542 q 758 317 782 442 m 315 365 q 329 292 308 324 q 392 261 350 261 q 463 285 432 261 q 500 349 493 308 q 489 423 508 392 q 421 454 469 454 q 350 430 378 454 q 315 365 322 406 z "},"¥":{"ha":1099,"x_min":76,"x_max":1161,"o":"m 1161 972 l 863 506 l 1004 506 l 978 360 l 769 360 l 721 285 l 964 285 l 936 140 l 689 140 l 664 0 l 293 0 l 319 140 l 76 140 l 103 285 l 339 285 l 314 360 l 117 360 l 144 506 l 267 506 l 113 972 l 496 972 l 569 604 l 581 604 l 739 972 l 1161 972 z "},"¦":{"ha":414,"x_min":-28,"x_max":442,"o":"m 190 1039 l 442 1039 l 347 529 l 96 529 l 190 1039 m -28 -132 l 68 376 l 319 376 l 224 -132 l -28 -132 z "},"§":{"ha":1021,"x_min":-76,"x_max":1003,"o":"m 986 674 l 651 674 q 638 728 657 708 q 586 749 619 749 q 510 706 518 749 q 572 642 503 669 q 679 607 592 635 q 850 538 801 568 q 954 294 985 453 q 842 99 932 174 q 857 -50 874 35 q 706 -273 829 -200 q 392 -346 583 -346 q 38 -242 153 -346 q -50 0 -76 -139 l 289 0 q 306 -62 281 -43 q 375 -85 332 -81 q 471 -44 465 -93 q 344 44 476 3 q 94 176 165 101 q 47 386 22 251 q 90 490 57 439 q 164 569 122 540 q 144 731 126 632 q 198 850 157 799 q 288 929 239 901 q 403 974 338 957 q 518 994 468 990 q 624 999 568 999 q 758 981 692 999 q 883 927 824 963 q 973 825 943 892 q 986 674 1003 758 m 565 261 q 584 299 582 283 q 569 331 586 315 q 524 360 551 347 q 447 393 497 374 q 420 404 442 396 q 388 417 399 413 q 483 288 332 343 q 565 261 504 281 z "},"¨":{"ha":782,"x_min":88,"x_max":847,"o":"m 290 1096 q 412 1038 371 1096 q 440 906 453 981 q 372 792 426 835 q 247 749 318 749 q 130 810 172 749 q 100 944 88 871 q 167 1055 114 1014 q 290 1096 219 1096 m 685 1096 q 806 1038 765 1096 q 833 906 847 981 q 765 792 819 835 q 642 749 711 749 q 524 810 567 749 q 494 944 481 871 q 560 1055 508 1014 q 685 1096 613 1096 z "},"©":{"ha":1267,"x_min":6,"x_max":1251,"o":"m 679 1072 q 922 1024 810 1072 q 1110 892 1035 975 q 1219 694 1186 810 q 1228 450 1251 578 q 1015 55 1181 201 q 578 -92 850 -92 q 277 -11 413 -92 q 74 213 142 69 q 38 528 6 357 q 252 922 83 772 q 679 1072 421 1072 m 1058 450 q 984 771 1094 639 q 679 903 874 903 q 364 801 489 903 q 207 528 239 699 q 285 210 174 343 q 578 76 397 76 q 900 177 774 76 q 1058 450 1026 278 m 619 419 q 685 461 661 419 l 856 461 q 590 268 806 268 q 422 333 490 268 q 374 501 354 397 q 465 655 392 597 q 643 713 538 713 q 810 658 744 713 q 863 518 875 603 l 696 518 q 642 561 692 561 q 567 499 582 561 q 573 443 557 467 q 619 419 589 419 z "},"«":{"ha":1047,"x_min":14,"x_max":1019,"o":"m 568 678 l 561 644 l 351 386 l 465 129 l 460 96 l 139 96 l 14 386 l 240 678 l 568 678 m 1019 678 l 1014 644 l 804 386 l 918 129 l 911 96 l 590 96 l 465 386 l 693 678 l 1019 678 z "},"®":{"ha":1267,"x_min":15,"x_max":1251,"o":"m 679 1072 q 922 1024 810 1072 q 1110 892 1035 975 q 1219 694 1186 810 q 1228 450 1251 578 q 1016 55 1182 201 q 579 -92 850 -92 q 345 -44 456 -92 q 159 85 235 4 q 49 283 83 167 q 39 528 15 400 q 252 922 85 772 q 679 1072 419 1072 m 1060 450 q 984 771 1094 639 q 679 903 874 903 q 364 801 489 903 q 207 528 239 699 q 286 210 174 343 q 579 76 399 76 q 900 177 774 76 q 1060 450 1026 278 m 686 704 q 825 663 769 704 q 867 547 881 621 q 799 432 853 471 l 856 276 l 667 276 l 632 390 l 582 390 l 561 276 l 385 276 l 464 704 l 686 704 m 617 582 l 604 513 l 646 513 q 694 547 686 513 q 688 574 697 565 q 658 582 678 582 l 617 582 z "},"¯":{"ha":614,"x_min":69,"x_max":697,"o":"m 124 1053 l 697 1053 l 644 764 l 69 764 l 124 1053 z "},"°":{"ha":536,"x_min":69,"x_max":563,"o":"m 350 999 q 509 925 456 999 q 544 753 563 851 q 458 613 528 664 q 285 563 389 563 q 126 634 182 563 q 88 803 69 706 q 350 999 124 999 m 306 717 q 351 733 331 717 q 376 775 371 749 q 368 823 381 803 q 324 843 356 843 q 256 785 267 843 q 264 738 250 758 q 306 717 278 717 z "},"±":{"ha":811,"x_min":-28,"x_max":797,"o":"m -28 -14 l 18 238 l 700 238 l 654 -14 l -28 -14 m 574 758 l 797 758 l 751 507 l 526 507 l 488 292 l 235 292 l 275 507 l 68 507 l 115 758 l 322 758 l 363 974 l 614 974 l 574 758 z "},"´":{"ha":481,"x_min":69,"x_max":571,"o":"m 228 1053 l 571 1053 l 347 764 l 69 764 l 228 1053 z "},"¶":{"ha":915,"x_min":68,"x_max":943,"o":"m 408 1038 l 943 1038 l 725 -132 l 474 -132 l 649 814 l 594 814 l 419 -132 l 168 -132 l 275 442 q 114 543 160 450 q 93 769 68 636 q 201 965 115 892 q 408 1038 286 1038 z "},"¸":{"ha":214,"x_min":-167,"x_max":199,"o":"m 47 -57 q 167 -108 135 -60 q 175 -235 199 -156 q -167 -342 124 -401 l -139 -190 q -49 -186 -53 -222 q -59 -163 -44 -168 q -106 -164 -74 -158 l -87 -67 l -19 0 l 101 0 l 47 -57 z "},"»":{"ha":1001,"x_min":-28,"x_max":960,"o":"m 396 678 l 521 386 l 293 96 l -28 96 l -22 129 l 182 386 l 75 644 l 81 678 l 396 678 m 833 678 l 960 386 l 732 96 l 411 96 l 417 129 l 621 386 l 513 644 l 519 678 l 833 678 z "},"¿":{"ha":819,"x_min":-117,"x_max":708,"o":"m 349 211 q 227 269 268 211 q 199 401 186 326 q 267 515 213 472 q 392 558 322 558 q 510 497 467 558 q 539 363 553 436 q 473 252 525 293 q 349 211 421 211 m 307 -204 q 372 -117 357 -204 l 708 -117 q 550 -385 672 -304 q 232 -467 428 -467 q 133 -457 182 -467 q 34 -424 83 -447 q -50 -364 -15 -400 q -101 -270 -85 -328 q -104 -140 -117 -212 q -15 47 -81 -14 q 138 108 50 108 l 201 108 l 213 172 l 483 172 l 438 -72 l 358 -72 q 288 -88 306 -72 q 263 -153 271 -104 q 270 -191 257 -178 q 307 -204 283 -204 z "},"À":{"ha":1288,"x_min":-62,"x_max":1169,"o":"m 772 0 l 751 154 l 433 154 l 361 0 l -62 0 l 464 972 l 967 972 l 1169 0 l 772 0 m 571 444 l 710 444 l 682 642 l 664 642 l 571 444 m 801 1331 l 842 1042 l 590 1042 l 458 1331 l 801 1331 z "},"Á":{"ha":1288,"x_min":-62,"x_max":1169,"o":"m 772 0 l 751 154 l 433 154 l 361 0 l -62 0 l 464 972 l 967 972 l 1169 0 l 772 0 m 571 444 l 710 444 l 682 642 l 664 642 l 571 444 m 739 1331 l 1082 1331 l 858 1042 l 581 1042 l 739 1331 z "},"Â":{"ha":1288,"x_min":-62,"x_max":1169,"o":"m 772 0 l 751 154 l 433 154 l 361 0 l -62 0 l 464 972 l 967 972 l 1169 0 l 772 0 m 571 444 l 710 444 l 682 642 l 664 642 l 571 444 m 786 1042 l 765 1200 l 744 1200 l 651 1042 l 308 1042 l 572 1331 l 999 1331 l 1131 1042 l 786 1042 z "},"Ã":{"ha":1288,"x_min":-62,"x_max":1169,"o":"m 772 0 l 751 154 l 433 154 l 361 0 l -62 0 l 464 972 l 967 972 l 1169 0 l 772 0 m 571 444 l 710 444 l 682 642 l 664 642 l 571 444 m 879 1346 l 1053 1346 q 1032 1244 1040 1282 q 1006 1160 1024 1207 q 969 1088 989 1113 q 918 1044 950 1063 q 844 1026 886 1026 q 732 1070 793 1026 q 651 1114 671 1114 q 618 1099 629 1114 q 600 1043 607 1085 l 415 1043 q 494 1289 446 1211 q 643 1367 543 1367 q 757 1326 697 1367 q 833 1286 817 1286 q 879 1346 868 1286 z "},"Ä":{"ha":1288,"x_min":-62,"x_max":1169,"o":"m 772 0 l 751 154 l 433 154 l 361 0 l -62 0 l 464 972 l 967 972 l 1169 0 l 772 0 m 571 444 l 710 444 l 682 642 l 664 642 l 571 444 m 599 1374 q 720 1316 679 1374 q 749 1183 761 1258 q 681 1069 735 1113 q 556 1026 626 1026 q 438 1088 481 1026 q 408 1222 396 1149 q 475 1333 422 1292 q 599 1374 528 1374 m 993 1374 q 1115 1316 1074 1374 q 1142 1183 1156 1258 q 1074 1069 1128 1113 q 950 1026 1019 1026 q 832 1088 875 1026 q 803 1222 789 1149 q 869 1333 817 1292 q 993 1374 921 1374 z "},"Å":{"ha":1288,"x_min":-62,"x_max":1169,"o":"m 772 0 l 751 154 l 433 154 l 361 0 l -62 0 l 464 972 l 967 972 l 1169 0 l 772 0 m 571 444 l 710 444 l 682 642 l 664 642 l 571 444 m 779 1426 q 924 1359 875 1426 q 957 1201 974 1292 q 878 1073 942 1119 q 718 1026 814 1026 q 574 1092 625 1026 q 538 1247 522 1158 q 779 1426 571 1426 m 700 1187 q 706 1177 700 1187 q 738 1168 713 1168 q 781 1183 763 1168 q 803 1221 799 1197 q 795 1265 807 1247 q 756 1283 783 1283 q 693 1231 703 1283 q 700 1187 688 1206 z "},"Æ":{"ha":1614,"x_min":-62,"x_max":1656,"o":"m 1601 681 l 1150 681 l 1139 618 l 1546 618 l 1497 354 l 1089 354 l 1078 290 l 1529 290 l 1475 0 l 653 0 l 682 154 l 435 154 l 361 0 l -62 0 l 464 972 l 1656 972 l 1601 681 m 572 444 l 736 444 l 772 642 l 665 642 l 572 444 z "},"Ç":{"ha":1169,"x_min":17,"x_max":1164,"o":"m 629 649 q 453 506 490 649 q 470 377 433 431 q 576 324 507 324 q 664 347 629 324 q 728 421 699 369 l 1121 421 q 589 -22 1014 10 l 557 -57 q 676 -108 644 -60 q 685 -235 708 -156 q 343 -342 633 -403 l 371 -190 q 461 -186 454 -221 q 450 -164 465 -168 q 404 -164 435 -160 l 422 -67 l 465 -24 q 277 24 364 -17 q 129 132 190 65 q 42 298 68 199 q 39 513 17 397 q 235 868 82 738 q 629 999 389 999 q 1015 873 865 999 q 1138 551 1164 747 l 751 551 q 716 624 749 599 q 629 649 683 650 z "},"È":{"ha":933,"x_min":-28,"x_max":975,"o":"m 921 682 l 469 682 l 458 618 l 865 618 l 817 354 l 408 354 l 397 292 l 849 292 l 794 0 l -28 0 l 153 972 l 975 972 l 921 682 m 653 1331 l 693 1042 l 442 1042 l 310 1331 l 653 1331 z "},"É":{"ha":933,"x_min":-28,"x_max":975,"o":"m 921 682 l 469 682 l 458 618 l 865 618 l 817 354 l 408 354 l 397 292 l 849 292 l 794 0 l -28 0 l 153 972 l 975 972 l 921 682 m 561 1331 l 904 1331 l 681 1042 l 403 1042 l 561 1331 z "},"Ê":{"ha":933,"x_min":-28,"x_max":982,"o":"m 921 682 l 469 682 l 458 618 l 865 618 l 817 354 l 408 354 l 397 292 l 849 292 l 794 0 l -28 0 l 153 972 l 975 972 l 921 682 m 638 1042 l 617 1200 l 596 1200 l 503 1042 l 160 1042 l 424 1331 l 850 1331 l 982 1042 l 638 1042 z "},"Ë":{"ha":933,"x_min":-28,"x_max":978,"o":"m 921 682 l 469 682 l 458 618 l 865 618 l 817 354 l 408 354 l 397 292 l 849 292 l 794 0 l -28 0 l 153 972 l 975 972 l 921 682 m 421 1374 q 542 1316 501 1374 q 571 1183 583 1258 q 503 1069 557 1113 q 378 1026 449 1026 q 260 1088 303 1026 q 231 1222 218 1149 q 297 1333 244 1292 q 421 1374 350 1374 m 815 1374 q 937 1316 896 1374 q 964 1183 978 1258 q 896 1069 950 1113 q 772 1026 842 1026 q 654 1088 697 1026 q 625 1222 611 1149 q 691 1333 639 1292 q 815 1374 743 1374 z "},"Ì":{"ha":496,"x_min":-28,"x_max":524,"o":"m 153 972 l 524 972 l 343 0 l -28 0 l 153 972 m 426 1331 l 467 1042 l 215 1042 l 83 1331 l 426 1331 z "},"Í":{"ha":496,"x_min":-28,"x_max":707,"o":"m 153 972 l 524 972 l 343 0 l -28 0 l 153 972 m 364 1331 l 707 1331 l 483 1042 l 206 1042 l 364 1331 z "},"Î":{"ha":496,"x_min":-28,"x_max":794,"o":"m 190 972 l 561 972 l 381 0 l 10 0 l 190 972 m 450 1042 l 429 1200 l 408 1200 l 315 1042 l -28 1042 l 236 1331 l 663 1331 l 794 1042 l 450 1042 z "},"Ï":{"ha":496,"x_min":-28,"x_max":753,"o":"m 153 972 l 524 972 l 343 0 l -28 0 l 153 972 m 196 1374 q 317 1316 276 1374 q 346 1183 358 1258 q 278 1069 332 1113 q 153 1026 224 1026 q 35 1088 78 1026 q 6 1222 -7 1149 q 72 1333 19 1292 q 196 1374 125 1374 m 590 1374 q 712 1316 671 1374 q 739 1183 753 1258 q 671 1069 725 1113 q 547 1026 617 1026 q 429 1088 472 1026 q 400 1222 386 1149 q 466 1333 414 1292 q 590 1374 518 1374 z "},"Ð":{"ha":1132,"x_min":-42,"x_max":1135,"o":"m 639 972 q 1024 837 913 972 q 1092 469 1135 701 q 892 108 1044 215 q 476 0 739 0 l -1 0 l 71 386 l -42 386 l -4 585 l 108 585 l 179 972 l 639 972 m 707 486 q 569 639 736 639 l 489 639 l 478 585 l 624 585 l 586 386 l 442 386 l 432 332 l 503 332 q 707 486 679 332 z "},"Ñ":{"ha":1192,"x_min":-28,"x_max":1219,"o":"m 1219 972 l 1039 0 l 663 0 l 439 483 l 432 483 l 342 0 l -28 0 l 153 972 l 526 972 l 753 490 l 758 490 l 849 972 l 1219 972 m 851 1346 l 1025 1346 q 1004 1244 1013 1282 q 978 1160 996 1207 q 942 1088 961 1113 q 890 1044 922 1063 q 817 1026 858 1026 q 704 1070 765 1026 q 624 1114 643 1114 q 590 1099 601 1114 q 572 1043 579 1085 l 388 1043 q 467 1289 418 1211 q 615 1367 515 1367 q 729 1326 669 1367 q 806 1286 789 1286 q 851 1346 840 1286 z "},"Ò":{"ha":1161,"x_min":15,"x_max":1169,"o":"m 640 999 q 1030 847 890 999 q 1122 444 1169 696 q 924 108 1085 243 q 526 -26 763 -26 q 303 8 403 -26 q 136 110 204 43 q 42 281 68 176 q 40 515 15 385 q 240 869 81 740 q 640 999 399 999 m 739 475 q 713 599 753 549 q 600 650 672 650 q 483 609 528 650 q 425 496 438 568 q 452 375 411 428 q 560 322 493 322 q 677 360 629 322 q 739 475 725 399 m 732 1331 l 772 1042 l 521 1042 l 389 1331 l 732 1331 z "},"Ó":{"ha":1161,"x_min":15,"x_max":1169,"o":"m 640 999 q 1030 847 890 999 q 1122 444 1169 696 q 924 108 1085 243 q 526 -26 763 -26 q 303 8 403 -26 q 136 110 204 43 q 42 281 68 176 q 40 515 15 385 q 240 869 81 740 q 640 999 399 999 m 739 475 q 713 599 753 549 q 600 650 672 650 q 483 609 528 650 q 425 496 438 568 q 452 375 411 428 q 560 322 493 322 q 677 360 629 322 q 739 475 725 399 m 640 1331 l 983 1331 l 760 1042 l 482 1042 l 640 1331 z "},"Ô":{"ha":1161,"x_min":15,"x_max":1169,"o":"m 640 999 q 1030 847 890 999 q 1122 444 1169 696 q 924 108 1085 243 q 526 -26 763 -26 q 303 8 403 -26 q 136 110 204 43 q 42 281 68 176 q 40 515 15 385 q 240 869 81 740 q 640 999 399 999 m 739 475 q 713 599 753 549 q 600 650 672 650 q 483 609 528 650 q 425 496 438 568 q 452 375 411 428 q 560 322 493 322 q 677 360 629 322 q 739 475 725 399 m 731 1042 l 710 1200 l 689 1200 l 596 1042 l 253 1042 l 517 1331 l 943 1331 l 1075 1042 l 731 1042 z "},"Õ":{"ha":1161,"x_min":15,"x_max":1169,"o":"m 640 999 q 1030 847 890 999 q 1122 444 1169 696 q 924 108 1085 243 q 526 -26 763 -26 q 303 8 403 -26 q 136 110 204 43 q 42 281 68 176 q 40 515 15 385 q 240 869 81 740 q 640 999 399 999 m 739 475 q 713 599 753 549 q 600 650 672 650 q 483 609 528 650 q 425 496 438 568 q 452 375 411 428 q 560 322 493 322 q 677 360 629 322 q 739 475 725 399 m 794 1346 l 968 1346 q 947 1244 956 1282 q 922 1160 939 1207 q 885 1088 904 1113 q 833 1044 865 1063 q 760 1026 801 1026 q 647 1070 708 1026 q 567 1114 586 1114 q 533 1099 544 1114 q 515 1043 522 1085 l 331 1043 q 410 1289 361 1211 q 558 1367 458 1367 q 637 1347 599 1367 q 703 1306 675 1326 q 749 1286 732 1286 q 794 1346 783 1286 z "},"Ö":{"ha":1161,"x_min":15,"x_max":1169,"o":"m 640 999 q 1030 847 890 999 q 1122 444 1169 696 q 924 108 1085 243 q 526 -26 763 -26 q 303 8 403 -26 q 136 110 204 43 q 42 281 68 176 q 40 515 15 385 q 240 869 81 740 q 640 999 399 999 m 739 475 q 713 599 753 549 q 600 650 672 650 q 483 609 528 650 q 425 496 438 568 q 452 375 411 428 q 560 322 493 322 q 677 360 629 322 q 739 475 725 399 m 500 1374 q 622 1316 581 1374 q 650 1183 663 1258 q 582 1069 636 1113 q 457 1026 528 1026 q 340 1088 382 1026 q 310 1222 297 1149 q 376 1333 324 1292 q 500 1374 429 1374 m 894 1374 q 1016 1316 975 1374 q 1043 1183 1057 1258 q 975 1069 1029 1113 q 851 1026 921 1026 q 733 1088 776 1026 q 704 1222 690 1149 q 770 1333 718 1292 q 894 1374 822 1374 z "},"×":{"ha":742,"x_min":0,"x_max":700,"o":"m 700 539 l 528 379 l 660 235 l 482 57 l 343 208 l 178 57 l 0 235 l 174 394 l 40 539 l 218 717 l 357 564 l 522 717 l 700 539 z "},"Ø":{"ha":1161,"x_min":3,"x_max":1161,"o":"m 1069 796 q 1122 444 1161 649 q 924 108 1085 243 q 528 -26 764 -26 q 168 83 303 -26 l 115 43 l 42 136 l 89 172 q 40 515 3 313 q 240 869 82 740 q 640 999 399 999 q 990 885 857 999 l 1047 929 l 1121 836 l 1069 796 m 425 494 q 425 439 421 465 l 672 633 q 600 650 642 650 q 483 609 528 650 q 425 494 439 568 m 739 475 q 740 536 744 504 l 493 340 q 560 322 525 322 q 677 360 629 322 q 739 475 725 399 z "},"Ù":{"ha":1051,"x_min":-40,"x_max":1079,"o":"m 708 972 l 1079 972 q 982 446 1038 749 q 924 244 960 326 q 828 98 889 161 q 674 4 768 35 q 447 -26 579 -26 q 49 446 -40 -26 l 147 972 l 515 972 q 415 440 431 522 q 489 319 394 319 q 610 439 586 319 l 708 972 m 694 1331 l 735 1042 l 483 1042 l 351 1331 l 694 1331 z "},"Ú":{"ha":1051,"x_min":-40,"x_max":1079,"o":"m 708 972 l 1079 972 q 982 446 1038 749 q 924 244 960 326 q 828 98 889 161 q 674 4 768 35 q 447 -26 579 -26 q 49 446 -40 -26 l 147 972 l 515 972 q 415 440 431 522 q 489 319 394 319 q 610 439 586 319 l 708 972 m 644 1331 l 988 1331 l 764 1042 l 486 1042 l 644 1331 z "},"Û":{"ha":1051,"x_min":-40,"x_max":1079,"o":"m 708 972 l 1079 972 q 982 446 1038 749 q 924 244 960 326 q 828 98 889 161 q 674 4 768 35 q 447 -26 579 -26 q 49 446 -40 -26 l 147 972 l 515 972 q 415 440 431 522 q 489 319 394 319 q 610 439 586 319 l 708 972 m 686 1042 l 665 1200 l 644 1200 l 551 1042 l 208 1042 l 472 1331 l 899 1331 l 1031 1042 l 686 1042 z "},"Ü":{"ha":1051,"x_min":-40,"x_max":1079,"o":"m 708 972 l 1079 972 q 982 446 1038 749 q 924 244 960 326 q 828 98 889 161 q 674 4 768 35 q 447 -26 579 -26 q 49 446 -40 -26 l 147 972 l 515 972 q 415 440 431 522 q 489 319 394 319 q 610 439 586 319 l 708 972 m 463 1374 q 584 1316 543 1374 q 613 1183 625 1258 q 544 1069 599 1113 q 419 1026 490 1026 q 302 1088 344 1026 q 272 1222 260 1149 q 339 1333 286 1292 q 463 1374 392 1374 m 857 1374 q 978 1316 938 1374 q 1006 1183 1019 1258 q 938 1069 992 1113 q 814 1026 883 1026 q 696 1088 739 1026 q 667 1222 653 1149 q 733 1333 681 1292 q 857 1374 785 1374 z "},"Ý":{"ha":1099,"x_min":111,"x_max":1161,"o":"m 1161 972 l 714 272 l 663 0 l 293 0 l 343 272 l 111 972 l 496 972 l 569 604 l 581 604 l 738 972 l 1161 972 m 640 1331 l 983 1331 l 760 1042 l 482 1042 l 640 1331 z "},"Þ":{"ha":983,"x_min":-28,"x_max":993,"o":"m 593 863 q 892 760 792 863 q 961 486 993 657 q 814 204 925 297 q 488 111 703 111 l 363 111 l 343 0 l -28 0 l 153 972 l 524 972 l 503 863 l 593 863 m 599 486 q 585 542 604 525 q 513 558 565 558 l 446 558 l 419 415 l 483 415 q 566 431 539 415 q 599 486 593 446 z "},"ß":{"ha":988,"x_min":-28,"x_max":921,"o":"m 831 471 q 841 429 826 451 q 874 387 856 407 q 903 326 893 367 q 904 233 914 285 q 781 26 875 79 q 490 -26 686 -26 q 397 -17 465 -26 l 444 247 q 553 289 538 247 q 554 328 558 306 q 538 360 551 343 q 518 401 525 378 q 518 464 511 425 q 552 545 526 503 q 583 622 578 588 q 551 701 597 701 q 485 647 510 701 q 442 486 461 592 l 351 0 l -28 0 q 64 486 31 314 q 119 689 85 603 q 214 849 154 775 q 369 960 274 922 q 594 999 464 999 q 724 983 667 999 q 815 942 781 968 q 875 883 850 917 q 908 813 900 850 q 918 739 915 776 q 911 668 921 701 q 866 545 897 596 q 831 471 835 494 z "},"à":{"ha":1342,"x_min":-62,"x_max":1224,"o":"m 813 0 l 792 154 l 461 154 l 389 0 l -62 0 l 490 972 l 1007 972 l 1224 0 l 813 0 m 599 444 l 750 444 l 722 642 l 692 642 l 599 444 m 843 1331 l 883 1042 l 632 1042 l 500 1331 l 843 1331 z "},"á":{"ha":1342,"x_min":-62,"x_max":1224,"o":"m 813 0 l 792 154 l 461 154 l 389 0 l -62 0 l 490 972 l 1007 972 l 1224 0 l 813 0 m 599 444 l 750 444 l 722 642 l 692 642 l 599 444 m 781 1331 l 1124 1331 l 900 1042 l 622 1042 l 781 1331 z "},"â":{"ha":1342,"x_min":-62,"x_max":1224,"o":"m 813 0 l 792 154 l 461 154 l 389 0 l -62 0 l 490 972 l 1007 972 l 1224 0 l 813 0 m 599 444 l 750 444 l 722 642 l 692 642 l 599 444 m 828 1042 l 807 1200 l 786 1200 l 693 1042 l 350 1042 l 614 1331 l 1040 1331 l 1172 1042 l 828 1042 z "},"ã":{"ha":1342,"x_min":-62,"x_max":1224,"o":"m 813 0 l 792 154 l 461 154 l 389 0 l -62 0 l 490 972 l 1007 972 l 1224 0 l 813 0 m 599 444 l 750 444 l 722 642 l 692 642 l 599 444 m 921 1346 l 1094 1346 q 1074 1244 1082 1282 q 1048 1160 1065 1207 q 1011 1088 1031 1113 q 960 1044 992 1063 q 886 1026 928 1026 q 774 1070 835 1026 q 693 1114 713 1114 q 660 1099 671 1114 q 642 1043 649 1085 l 457 1043 q 536 1289 488 1211 q 685 1367 585 1367 q 799 1326 739 1367 q 875 1286 858 1286 q 921 1346 910 1286 z "},"ä":{"ha":1342,"x_min":-62,"x_max":1224,"o":"m 813 0 l 792 154 l 461 154 l 389 0 l -62 0 l 490 972 l 1007 972 l 1224 0 l 813 0 m 599 444 l 750 444 l 722 642 l 692 642 l 599 444 m 626 1374 q 748 1316 707 1374 q 776 1183 789 1258 q 708 1069 763 1113 q 583 1026 654 1026 q 466 1088 508 1026 q 436 1222 424 1149 q 503 1333 450 1292 q 626 1374 556 1374 m 1021 1374 q 1142 1316 1101 1374 q 1169 1183 1183 1258 q 1101 1069 1156 1113 q 978 1026 1047 1026 q 860 1088 903 1026 q 831 1222 817 1149 q 897 1333 844 1292 q 1021 1374 949 1374 z "},"å":{"ha":1342,"x_min":-62,"x_max":1224,"o":"m 813 0 l 792 154 l 461 154 l 389 0 l -62 0 l 490 972 l 1007 972 l 1224 0 l 813 0 m 599 444 l 750 444 l 722 642 l 692 642 l 599 444 m 821 1426 q 966 1359 917 1426 q 999 1201 1015 1292 q 919 1073 983 1119 q 760 1026 856 1026 q 615 1092 667 1026 q 579 1247 564 1158 q 821 1426 613 1426 m 742 1187 q 748 1177 742 1187 q 779 1168 754 1168 q 822 1183 804 1168 q 844 1221 840 1197 q 837 1265 849 1247 q 797 1283 825 1283 q 735 1231 744 1283 q 742 1187 729 1206 z "},"æ":{"ha":1750,"x_min":-62,"x_max":1792,"o":"m 1738 682 l 1233 682 l 1221 618 l 1682 618 l 1633 354 l 1172 354 l 1161 292 l 1665 292 l 1611 0 l 736 0 l 765 154 l 449 154 l 375 0 l -62 0 l 478 972 l 1792 972 l 1738 682 m 586 444 l 818 444 l 856 642 l 679 642 l 586 444 z "},"ç":{"ha":1238,"x_min":17,"x_max":1224,"o":"m 657 649 q 526 611 579 649 q 454 506 472 574 q 479 377 435 431 q 604 324 524 324 q 783 421 726 324 l 1189 421 q 989 107 1139 224 q 600 -24 839 -10 l 568 -57 q 689 -108 657 -60 q 696 -235 721 -156 q 356 -342 644 -403 l 382 -190 q 474 -186 467 -221 q 462 -164 476 -168 q 417 -164 447 -160 l 435 -67 l 479 -22 q 291 28 379 -12 q 138 133 203 68 q 45 296 74 199 q 38 506 17 393 q 247 867 81 736 q 657 999 413 999 q 942 944 811 999 q 1149 785 1074 889 q 1206 551 1224 681 l 806 551 q 759 622 803 596 q 657 649 715 649 z "},"è":{"ha":986,"x_min":-28,"x_max":1028,"o":"m 974 681 l 468 681 l 457 618 l 918 618 l 868 354 l 408 354 l 396 290 l 900 290 l 846 0 l -28 0 l 153 972 l 1028 972 l 974 681 m 694 1331 l 735 1042 l 483 1042 l 351 1331 l 694 1331 z "},"é":{"ha":986,"x_min":-28,"x_max":1028,"o":"m 974 681 l 468 681 l 457 618 l 918 618 l 868 354 l 408 354 l 396 290 l 900 290 l 846 0 l -28 0 l 153 972 l 1028 972 l 974 681 m 617 1331 l 960 1331 l 736 1042 l 458 1042 l 617 1331 z "},"ê":{"ha":986,"x_min":-28,"x_max":1028,"o":"m 974 681 l 468 681 l 457 618 l 918 618 l 868 354 l 408 354 l 396 290 l 900 290 l 846 0 l -28 0 l 153 972 l 1028 972 l 974 681 m 665 1042 l 644 1200 l 624 1200 l 531 1042 l 188 1042 l 451 1331 l 878 1331 l 1010 1042 l 665 1042 z "},"ë":{"ha":986,"x_min":-28,"x_max":1028,"o":"m 974 681 l 468 681 l 457 618 l 918 618 l 868 354 l 408 354 l 396 290 l 900 290 l 846 0 l -28 0 l 153 972 l 1028 972 l 974 681 m 435 1374 q 556 1316 515 1374 q 585 1183 597 1258 q 517 1069 571 1113 q 392 1026 463 1026 q 274 1088 317 1026 q 244 1222 232 1149 q 311 1333 258 1292 q 435 1374 364 1374 m 829 1374 q 951 1316 910 1374 q 978 1183 992 1258 q 910 1069 964 1113 q 786 1026 856 1026 q 668 1088 711 1026 q 639 1222 625 1149 q 705 1333 653 1292 q 829 1374 757 1374 z "},"ì":{"ha":807,"x_min":-28,"x_max":835,"o":"m 774 642 l 621 642 l 564 331 l 715 331 l 654 0 l -28 0 l 35 331 l 193 331 l 251 642 l 93 642 l 154 972 l 835 972 l 774 642 m 565 1331 l 606 1042 l 354 1042 l 222 1331 l 565 1331 z "},"í":{"ha":807,"x_min":-28,"x_max":874,"o":"m 774 642 l 621 642 l 564 331 l 715 331 l 654 0 l -28 0 l 35 331 l 193 331 l 251 642 l 93 642 l 154 972 l 835 972 l 774 642 m 531 1331 l 874 1331 l 650 1042 l 372 1042 l 531 1331 z "},"î":{"ha":807,"x_min":-65,"x_max":872,"o":"m 736 642 l 583 642 l 526 331 l 678 331 l 617 0 l -65 0 l -3 331 l 156 331 l 214 642 l 56 642 l 117 972 l 797 972 l 736 642 m 528 1042 l 507 1200 l 486 1200 l 393 1042 l 50 1042 l 314 1331 l 740 1331 l 872 1042 l 528 1042 z "},"ï":{"ha":807,"x_min":-58,"x_max":875,"o":"m 743 642 l 590 642 l 533 331 l 685 331 l 624 0 l -58 0 l 4 331 l 163 331 l 221 642 l 63 642 l 124 972 l 804 972 l 743 642 m 318 1374 q 440 1316 399 1374 q 468 1183 481 1258 q 400 1069 454 1113 q 275 1026 346 1026 q 158 1088 200 1026 q 128 1222 115 1149 q 194 1333 142 1292 q 318 1374 247 1374 m 713 1374 q 834 1316 793 1374 q 861 1183 875 1258 q 793 1069 847 1113 q 669 1026 739 1026 q 551 1088 594 1026 q 522 1222 508 1149 q 588 1333 536 1292 q 713 1374 640 1374 z "},"ð":{"ha":914,"x_min":-24,"x_max":924,"o":"m 635 971 q 860 376 924 724 q 392 -25 786 -25 q 97 101 217 -25 q 7 388 -24 226 q 553 683 83 807 q 439 844 542 761 l 257 729 l 157 885 l 268 956 q 237 972 253 964 q 211 985 221 981 q 199 992 201 990 q 259 1069 208 1004 q 326 1156 310 1135 q 471 1085 389 1131 l 647 1197 l 747 1042 l 635 971 m 550 339 q 530 429 560 390 q 446 468 500 468 q 353 439 390 468 q 304 354 315 410 q 330 267 296 304 q 421 231 364 231 q 508 260 475 231 q 550 339 542 290 z "},"ñ":{"ha":1218,"x_min":-28,"x_max":1246,"o":"m 1246 972 l 1065 0 l 690 0 l 453 483 l 432 483 l 343 0 l -28 0 l 153 972 l 528 972 l 767 489 l 786 489 l 876 972 l 1246 972 m 879 1346 l 1053 1346 q 1032 1244 1040 1282 q 1006 1160 1024 1207 q 969 1088 989 1113 q 918 1044 950 1063 q 844 1026 886 1026 q 732 1070 793 1026 q 651 1114 671 1114 q 618 1099 629 1114 q 600 1043 607 1085 l 415 1043 q 494 1289 446 1211 q 643 1367 543 1367 q 757 1326 697 1367 q 833 1286 817 1286 q 879 1346 868 1286 z "},"ò":{"ha":1242,"x_min":7,"x_max":1226,"o":"m 681 999 q 917 960 810 999 q 1095 851 1024 921 q 1197 675 1167 781 q 1203 444 1226 569 q 997 108 1165 242 q 567 -26 828 -26 q 258 33 388 -26 q 68 217 129 93 q 39 515 7 342 q 244 872 82 744 q 681 999 407 999 m 806 475 q 776 601 819 551 q 639 650 733 650 q 438 496 467 650 q 470 374 425 425 q 600 322 515 322 q 806 475 778 322 m 704 1331 l 744 1042 l 493 1042 l 361 1331 l 704 1331 z "},"ó":{"ha":1242,"x_min":7,"x_max":1226,"o":"m 681 999 q 917 960 810 999 q 1095 851 1024 921 q 1197 675 1167 781 q 1203 444 1226 569 q 997 108 1165 242 q 567 -26 828 -26 q 258 33 388 -26 q 68 217 129 93 q 39 515 7 342 q 244 872 82 744 q 681 999 407 999 m 806 475 q 776 601 819 551 q 639 650 733 650 q 438 496 467 650 q 470 374 425 425 q 600 322 515 322 q 806 475 778 322 m 682 1331 l 1025 1331 l 801 1042 l 524 1042 l 682 1331 z "},"ô":{"ha":1242,"x_min":7,"x_max":1226,"o":"m 681 999 q 917 960 810 999 q 1095 851 1024 921 q 1197 675 1167 781 q 1203 444 1226 569 q 997 108 1165 242 q 567 -26 828 -26 q 258 33 388 -26 q 68 217 129 93 q 39 515 7 342 q 244 872 82 744 q 681 999 407 999 m 806 475 q 776 601 819 551 q 639 650 733 650 q 438 496 467 650 q 470 374 425 425 q 600 322 515 322 q 806 475 778 322 m 758 1042 l 738 1200 l 717 1200 l 624 1042 l 281 1042 l 544 1331 l 971 1331 l 1103 1042 l 758 1042 z "},"õ":{"ha":1242,"x_min":7,"x_max":1226,"o":"m 681 999 q 917 960 810 999 q 1095 851 1024 921 q 1197 675 1167 781 q 1203 444 1226 569 q 997 108 1165 242 q 567 -26 828 -26 q 258 33 388 -26 q 68 217 129 93 q 39 515 7 342 q 244 872 82 744 q 681 999 407 999 m 806 475 q 776 601 819 551 q 639 650 733 650 q 438 496 467 650 q 470 374 425 425 q 600 322 515 322 q 806 475 778 322 m 864 1346 l 1038 1346 q 1017 1244 1025 1282 q 991 1160 1008 1207 q 954 1088 974 1113 q 903 1044 935 1063 q 829 1026 871 1026 q 717 1070 778 1026 q 636 1114 656 1114 q 603 1099 614 1114 q 585 1043 592 1085 l 400 1043 q 479 1289 431 1211 q 628 1367 528 1367 q 706 1347 668 1367 q 773 1306 744 1326 q 818 1286 801 1286 q 864 1346 853 1286 z "},"ö":{"ha":1242,"x_min":7,"x_max":1226,"o":"m 681 999 q 917 960 810 999 q 1095 851 1024 921 q 1197 675 1167 781 q 1203 444 1226 569 q 997 108 1165 242 q 567 -26 828 -26 q 258 33 388 -26 q 68 217 129 93 q 39 515 7 342 q 244 872 82 744 q 681 999 407 999 m 806 475 q 776 601 819 551 q 639 650 733 650 q 438 496 467 650 q 470 374 425 425 q 600 322 515 322 q 806 475 778 322 m 542 1374 q 663 1316 622 1374 q 692 1183 704 1258 q 624 1069 678 1113 q 499 1026 569 1026 q 381 1088 424 1026 q 351 1222 339 1149 q 418 1333 365 1292 q 542 1374 471 1374 m 936 1374 q 1058 1316 1017 1374 q 1085 1183 1099 1258 q 1017 1069 1071 1113 q 893 1026 963 1026 q 775 1088 818 1026 q 746 1222 732 1149 q 812 1333 760 1292 q 936 1374 864 1374 z "},"÷":{"ha":771,"x_min":0,"x_max":729,"o":"m 47 513 l 729 513 l 682 261 l 0 261 l 47 513 m 328 219 q 450 161 408 219 q 478 29 492 103 q 410 -85 464 -42 q 285 -128 356 -128 q 167 -67 210 -128 q 138 68 125 -6 q 204 178 151 138 q 328 219 257 219 m 392 554 q 274 615 317 554 q 244 750 232 676 q 311 860 258 819 q 435 901 364 901 q 557 843 515 901 q 585 711 599 785 q 517 597 571 640 q 392 554 463 554 z "},"ø":{"ha":1242,"x_min":-1,"x_max":1246,"o":"m 1129 813 q 1203 444 1246 663 q 997 107 1165 240 q 567 -26 829 -26 q 193 74 335 -26 l 156 43 l 82 136 l 106 156 q 39 517 -1 299 q 244 872 82 744 q 681 999 407 999 q 1043 894 900 999 l 1086 929 l 1161 836 l 1129 813 m 438 496 q 442 421 431 456 l 718 639 q 640 650 682 650 q 438 496 467 650 m 807 475 q 803 554 814 522 l 526 335 q 600 322 558 322 q 807 475 778 322 z "},"ù":{"ha":1156,"x_min":3,"x_max":1183,"o":"m 813 972 l 1183 972 q 1085 446 1142 749 q 1024 244 1063 328 q 917 97 985 160 q 745 4 849 35 q 499 -26 642 -26 q 119 90 236 -26 q 47 446 3 206 l 144 972 l 513 972 q 415 444 431 526 q 441 356 406 392 q 539 319 476 319 q 657 352 611 319 q 714 442 703 385 l 813 972 m 750 1331 l 790 1042 l 539 1042 l 407 1331 l 750 1331 z "},"ú":{"ha":1156,"x_min":3,"x_max":1183,"o":"m 813 972 l 1183 972 q 1085 446 1142 749 q 1024 244 1063 328 q 917 97 985 160 q 745 4 849 35 q 499 -26 642 -26 q 119 90 236 -26 q 47 446 3 206 l 144 972 l 513 972 q 415 444 431 526 q 441 356 406 392 q 539 319 476 319 q 657 352 611 319 q 714 442 703 385 l 813 972 m 700 1331 l 1043 1331 l 819 1042 l 542 1042 l 700 1331 z "},"û":{"ha":1156,"x_min":3,"x_max":1183,"o":"m 813 972 l 1183 972 q 1085 446 1142 749 q 1024 244 1063 328 q 917 97 985 160 q 745 4 849 35 q 499 -26 642 -26 q 119 90 236 -26 q 47 446 3 206 l 144 972 l 513 972 q 415 444 431 526 q 441 356 406 392 q 539 319 476 319 q 657 352 611 319 q 714 442 703 385 l 813 972 m 742 1042 l 721 1200 l 700 1200 l 607 1042 l 264 1042 l 528 1331 l 954 1331 l 1086 1042 l 742 1042 z "},"ü":{"ha":1156,"x_min":3,"x_max":1183,"o":"m 813 972 l 1183 972 q 1085 446 1142 749 q 1024 244 1063 328 q 917 97 985 160 q 745 4 849 35 q 499 -26 642 -26 q 119 90 236 -26 q 47 446 3 206 l 144 972 l 513 972 q 415 444 431 526 q 441 356 406 392 q 539 319 476 319 q 657 352 611 319 q 714 442 703 385 l 813 972 m 518 1374 q 640 1316 599 1374 q 668 1183 681 1258 q 600 1069 654 1113 q 475 1026 546 1026 q 358 1088 400 1026 q 328 1222 315 1149 q 394 1333 342 1292 q 518 1374 447 1374 m 913 1374 q 1034 1316 993 1374 q 1061 1183 1075 1258 q 993 1069 1047 1113 q 869 1026 939 1026 q 751 1088 794 1026 q 722 1222 708 1149 q 788 1333 736 1292 q 913 1374 840 1374 z "},"ý":{"ha":1178,"x_min":111,"x_max":1240,"o":"m 1240 972 l 765 272 l 715 0 l 318 0 l 369 272 l 111 972 l 494 972 l 592 618 l 631 618 l 817 972 l 1240 972 m 682 1331 l 1025 1331 l 801 1042 l 524 1042 l 682 1331 z "},"þ":{"ha":1050,"x_min":-28,"x_max":1060,"o":"m 660 863 q 959 759 858 863 q 1028 486 1060 656 q 881 203 992 297 q 554 110 769 110 l 364 110 l 343 0 l -28 0 l 153 972 l 524 972 l 503 863 l 660 863 m 665 486 q 651 542 671 525 q 579 558 632 558 l 446 558 l 419 414 l 549 414 q 631 430 604 414 q 665 486 658 446 z "},"ÿ":{"ha":1178,"x_min":111,"x_max":1240,"o":"m 1240 972 l 765 272 l 715 0 l 318 0 l 369 272 l 111 972 l 494 972 l 592 618 l 631 618 l 817 972 l 1240 972 m 528 1374 q 649 1316 608 1374 q 678 1183 690 1258 q 610 1069 664 1113 q 485 1026 556 1026 q 367 1088 410 1026 q 338 1222 325 1149 q 404 1333 351 1292 q 528 1374 457 1374 m 922 1374 q 1044 1316 1003 1374 q 1071 1183 1085 1258 q 1003 1069 1057 1113 q 879 1026 949 1026 q 761 1088 804 1026 q 732 1222 718 1149 q 798 1333 746 1292 q 922 1374 850 1374 z "},"Ā":{"ha":1288,"x_min":-62,"x_max":1169,"o":"m 772 0 l 751 154 l 433 154 l 361 0 l -62 0 l 464 972 l 967 972 l 1169 0 l 772 0 m 571 444 l 710 444 l 682 642 l 664 642 l 571 444 m 488 1331 l 1061 1331 l 1008 1042 l 433 1042 l 488 1331 z "},"ā":{"ha":1342,"x_min":-62,"x_max":1224,"o":"m 813 0 l 792 154 l 461 154 l 389 0 l -62 0 l 490 972 l 1007 972 l 1224 0 l 813 0 m 599 444 l 750 444 l 722 642 l 692 642 l 599 444 m 529 1331 l 1103 1331 l 1050 1042 l 475 1042 l 529 1331 z "},"Ă":{"ha":1288,"x_min":-62,"x_max":1169,"o":"m 772 0 l 751 154 l 433 154 l 361 0 l -62 0 l 464 972 l 967 972 l 1169 0 l 772 0 m 571 444 l 710 444 l 682 642 l 664 642 l 571 444 m 864 1338 l 1074 1338 q 715 1026 1017 1026 q 501 1114 572 1026 q 456 1338 431 1201 l 667 1338 q 678 1263 657 1289 q 746 1236 700 1236 q 864 1338 844 1236 z "},"ă":{"ha":1342,"x_min":-62,"x_max":1224,"o":"m 813 0 l 792 154 l 461 154 l 389 0 l -62 0 l 490 972 l 1007 972 l 1224 0 l 813 0 m 599 444 l 750 444 l 722 642 l 692 642 l 599 444 m 906 1338 l 1115 1338 q 757 1026 1058 1026 q 543 1114 614 1026 q 497 1338 472 1201 l 708 1338 q 720 1263 699 1289 q 788 1236 742 1236 q 906 1338 886 1236 z "},"Ą":{"ha":1288,"x_min":-62,"x_max":1169,"o":"m 1169 0 q 1110 -118 1096 -79 q 1169 -126 1121 -144 l 1135 -315 q 1039 -352 1097 -340 q 921 -350 981 -364 q 838 -290 861 -336 q 863 -124 796 -210 q 1018 0 931 -39 l 772 0 l 750 154 l 433 154 l 361 0 l -62 0 l 464 972 l 965 972 l 1169 0 m 571 444 l 710 444 l 682 642 l 664 642 l 571 444 z "},"ą":{"ha":1340,"x_min":-62,"x_max":1222,"o":"m 1222 0 q 1163 -118 1150 -79 q 1222 -126 1172 -146 l 1188 -315 q 1092 -352 1150 -340 q 974 -350 1033 -364 q 892 -290 915 -336 q 880 -199 871 -243 q 923 -115 889 -156 q 996 -46 957 -75 q 1071 0 1035 -17 l 813 0 l 790 154 l 460 154 l 388 0 l -62 0 l 490 972 l 1006 972 l 1222 0 m 597 444 l 750 444 l 722 642 l 690 642 l 597 444 z "},"Ć":{"ha":1169,"x_min":15,"x_max":1164,"o":"m 629 649 q 453 506 490 649 q 470 377 433 431 q 576 324 507 324 q 664 347 629 324 q 728 421 699 369 l 1121 421 q 510 -26 1006 -26 q 306 11 401 -26 q 143 116 211 49 q 45 287 75 183 q 39 513 15 390 q 235 868 82 738 q 629 999 389 999 q 1015 873 865 999 q 1138 551 1164 747 l 751 551 q 716 624 749 599 q 629 649 683 650 m 644 1331 l 988 1331 l 764 1042 l 486 1042 l 644 1331 z "},"ć":{"ha":1236,"x_min":14,"x_max":1222,"o":"m 603 324 q 782 421 725 324 l 1188 421 q 969 92 1133 211 q 539 -26 804 -26 q 331 10 431 -26 q 158 113 232 47 q 49 282 83 179 q 38 506 14 385 q 246 867 81 735 q 656 999 411 999 q 941 944 810 999 q 1147 785 1072 889 q 1204 551 1222 681 l 804 551 q 758 622 801 596 q 656 649 714 649 q 524 611 578 649 q 453 506 471 574 q 478 377 433 431 q 603 324 522 324 m 700 1331 l 1043 1331 l 819 1042 l 542 1042 l 700 1331 z "},"Ĉ":{"ha":1169,"x_min":15,"x_max":1164,"o":"m 629 649 q 453 506 490 649 q 470 377 433 431 q 576 324 507 324 q 664 347 629 324 q 728 421 699 369 l 1121 421 q 510 -26 1006 -26 q 306 11 401 -26 q 143 116 211 49 q 45 287 75 183 q 39 513 15 390 q 235 868 82 738 q 629 999 389 999 q 1015 873 865 999 q 1138 551 1164 747 l 751 551 q 716 624 749 599 q 629 649 683 650 m 721 1042 l 700 1200 l 679 1200 l 586 1042 l 243 1042 l 507 1331 l 933 1331 l 1065 1042 l 721 1042 z "},"ĉ":{"ha":1236,"x_min":14,"x_max":1222,"o":"m 603 324 q 782 421 725 324 l 1188 421 q 969 92 1133 211 q 539 -26 804 -26 q 331 10 431 -26 q 158 113 232 47 q 49 282 83 179 q 38 506 14 385 q 246 867 81 735 q 656 999 411 999 q 941 944 810 999 q 1147 785 1072 889 q 1204 551 1222 681 l 804 551 q 758 622 801 596 q 656 649 714 649 q 524 611 578 649 q 453 506 471 574 q 478 377 433 431 q 603 324 522 324 m 790 1042 l 769 1200 l 749 1200 l 656 1042 l 313 1042 l 576 1331 l 1003 1331 l 1135 1042 l 790 1042 z "},"Ċ":{"ha":1169,"x_min":15,"x_max":1164,"o":"m 629 649 q 453 506 490 649 q 470 377 433 431 q 576 324 507 324 q 664 347 629 324 q 728 421 699 369 l 1121 421 q 510 -26 1006 -26 q 306 11 401 -26 q 143 116 211 49 q 45 287 75 183 q 39 513 15 390 q 235 868 82 738 q 629 999 389 999 q 1015 873 865 999 q 1138 551 1164 747 l 751 551 q 716 624 749 599 q 629 649 683 650 m 729 1374 q 851 1315 810 1374 q 879 1183 893 1257 q 811 1069 865 1113 q 686 1026 757 1026 q 569 1088 611 1026 q 539 1222 526 1149 q 606 1333 553 1292 q 729 1374 658 1374 z "},"ċ":{"ha":1236,"x_min":14,"x_max":1222,"o":"m 603 324 q 782 421 725 324 l 1188 421 q 969 92 1133 211 q 539 -26 804 -26 q 331 10 431 -26 q 158 113 232 47 q 49 282 83 179 q 38 506 14 385 q 246 867 81 735 q 656 999 411 999 q 941 944 810 999 q 1147 785 1072 889 q 1204 551 1222 681 l 804 551 q 758 622 801 596 q 656 649 714 649 q 524 611 578 649 q 453 506 471 574 q 478 377 433 431 q 603 324 522 324 m 757 1374 q 879 1315 838 1374 q 907 1183 921 1257 q 839 1069 893 1113 q 714 1026 785 1026 q 597 1088 639 1026 q 567 1222 554 1149 q 633 1333 581 1292 q 757 1374 686 1374 z "},"Č":{"ha":1169,"x_min":15,"x_max":1164,"o":"m 629 649 q 453 506 490 649 q 470 377 433 431 q 576 324 507 324 q 664 347 629 324 q 728 421 699 369 l 1121 421 q 510 -26 1006 -26 q 306 11 401 -26 q 143 116 211 49 q 45 287 75 183 q 39 513 15 390 q 235 868 82 738 q 629 999 389 999 q 1015 873 865 999 q 1138 551 1164 747 l 751 551 q 716 624 749 599 q 629 649 683 650 m 778 1331 l 1121 1331 l 857 1042 l 432 1042 l 299 1331 l 643 1331 l 664 1172 l 685 1172 l 778 1331 z "},"č":{"ha":1236,"x_min":14,"x_max":1222,"o":"m 603 324 q 782 421 725 324 l 1188 421 q 969 92 1133 211 q 539 -26 804 -26 q 331 10 431 -26 q 158 113 232 47 q 49 282 83 179 q 38 506 14 385 q 246 867 81 735 q 656 999 411 999 q 941 944 810 999 q 1147 785 1072 889 q 1204 551 1222 681 l 804 551 q 758 622 801 596 q 656 649 714 649 q 524 611 578 649 q 453 506 471 574 q 478 377 433 431 q 603 324 522 324 m 833 1331 l 1176 1331 l 913 1042 l 488 1042 l 354 1331 l 699 1331 l 719 1172 l 740 1172 l 833 1331 z "},"Ď":{"ha":1104,"x_min":-28,"x_max":1107,"o":"m 613 972 q 997 837 886 972 q 1064 469 1107 701 q 865 108 1017 215 q 450 0 713 0 l -28 0 l 153 972 l 613 972 m 681 486 q 543 640 710 640 l 461 640 l 404 333 l 475 333 q 681 486 650 333 m 689 1331 l 1032 1331 l 768 1042 l 343 1042 l 210 1331 l 554 1331 l 575 1172 l 596 1172 l 689 1331 z "},"ď":{"ha":1650,"x_min":-28,"x_max":1706,"o":"m 679 972 q 1063 837 953 972 q 1131 469 1174 701 q 931 108 1083 215 q 515 0 779 0 l -28 0 l 153 972 l 679 972 m 746 486 q 608 639 775 639 l 461 639 l 404 332 l 542 332 q 746 486 718 332 m 1706 972 l 1700 943 l 1478 590 l 1226 590 l 1372 972 l 1706 972 z "},"Đ":{"ha":1132,"x_min":-42,"x_max":1135,"o":"m 639 972 q 1024 837 913 972 q 1092 469 1135 701 q 892 108 1044 215 q 476 0 739 0 l -1 0 l 71 386 l -42 386 l -4 585 l 108 585 l 179 972 l 639 972 m 707 486 q 569 639 736 639 l 489 639 l 478 585 l 624 585 l 586 386 l 442 386 l 432 332 l 503 332 q 707 486 679 332 z "},"đ":{"ha":1197,"x_min":-42,"x_max":1200,"o":"m 706 972 q 1090 837 979 972 q 1157 469 1200 701 q 958 108 1110 215 q 542 0 806 0 l -1 0 l 71 388 l -42 388 l -6 586 l 107 586 l 179 972 l 706 972 m 772 486 q 635 640 801 640 l 488 640 l 478 586 l 622 586 l 586 388 l 440 388 l 431 333 l 568 333 q 772 486 744 333 z "},"Ē":{"ha":933,"x_min":-28,"x_max":975,"o":"m 921 682 l 469 682 l 458 618 l 865 618 l 817 354 l 408 354 l 397 292 l 849 292 l 794 0 l -28 0 l 153 972 l 975 972 l 921 682 m 339 1331 l 913 1331 l 860 1042 l 285 1042 l 339 1331 z "},"ē":{"ha":986,"x_min":-28,"x_max":1028,"o":"m 974 681 l 468 681 l 457 618 l 918 618 l 868 354 l 408 354 l 396 290 l 900 290 l 846 0 l -28 0 l 153 972 l 1028 972 l 974 681 m 367 1331 l 940 1331 l 888 1042 l 313 1042 l 367 1331 z "},"Ĕ":{"ha":933,"x_min":-28,"x_max":975,"o":"m 921 682 l 469 682 l 458 618 l 865 618 l 817 354 l 408 354 l 397 292 l 849 292 l 794 0 l -28 0 l 153 972 l 975 972 l 921 682 m 714 1338 l 924 1338 q 565 1026 867 1026 q 351 1114 422 1026 q 306 1338 281 1201 l 517 1338 q 528 1263 507 1289 q 596 1236 550 1236 q 714 1338 694 1236 z "},"ĕ":{"ha":986,"x_min":-28,"x_max":1028,"o":"m 974 681 l 468 681 l 457 618 l 918 618 l 868 354 l 408 354 l 396 290 l 900 290 l 846 0 l -28 0 l 153 972 l 1028 972 l 974 681 m 756 1338 l 965 1338 q 607 1026 908 1026 q 393 1114 464 1026 q 347 1338 322 1201 l 558 1338 q 570 1263 549 1289 q 638 1236 592 1236 q 756 1338 736 1236 z "},"Ė":{"ha":933,"x_min":-28,"x_max":975,"o":"m 921 682 l 469 682 l 458 618 l 865 618 l 817 354 l 408 354 l 397 292 l 849 292 l 794 0 l -28 0 l 153 972 l 975 972 l 921 682 m 618 1374 q 740 1315 699 1374 q 768 1183 782 1257 q 700 1069 754 1113 q 575 1026 646 1026 q 458 1088 500 1026 q 428 1222 415 1149 q 494 1333 442 1292 q 618 1374 547 1374 z "},"ė":{"ha":986,"x_min":-28,"x_max":1028,"o":"m 974 681 l 468 681 l 457 618 l 918 618 l 868 354 l 408 354 l 396 290 l 900 290 l 846 0 l -28 0 l 153 972 l 1028 972 l 974 681 m 660 1374 q 782 1315 740 1374 q 810 1183 824 1257 q 742 1069 796 1113 q 617 1026 688 1026 q 499 1088 542 1026 q 469 1222 457 1149 q 536 1333 483 1292 q 660 1374 589 1374 z "},"Ę":{"ha":933,"x_min":-28,"x_max":975,"o":"m 921 682 l 468 682 l 457 618 l 865 618 l 815 354 l 408 354 l 396 292 l 847 292 l 793 0 q 733 -118 719 -79 q 793 -126 744 -144 l 758 -315 q 663 -352 721 -340 q 544 -350 604 -364 q 461 -290 485 -336 q 487 -124 419 -210 q 642 0 554 -39 l -28 0 l 153 972 l 975 972 l 921 682 z "},"ę":{"ha":986,"x_min":-28,"x_max":1028,"o":"m 974 682 l 469 682 l 457 618 l 918 618 l 869 354 l 408 354 l 397 292 l 901 292 l 847 0 q 788 -118 774 -79 q 847 -126 796 -146 l 813 -315 q 717 -352 775 -340 q 599 -350 658 -364 q 515 -290 539 -336 q 541 -124 474 -210 q 694 0 608 -39 l -28 0 l 153 972 l 1028 972 l 974 682 z "},"Ě":{"ha":933,"x_min":-28,"x_max":1038,"o":"m 921 682 l 469 682 l 458 618 l 865 618 l 817 354 l 408 354 l 397 292 l 849 292 l 794 0 l -28 0 l 153 972 l 975 972 l 921 682 m 694 1331 l 1038 1331 l 774 1042 l 349 1042 l 215 1331 l 560 1331 l 581 1172 l 601 1172 l 694 1331 z "},"ě":{"ha":986,"x_min":-28,"x_max":1079,"o":"m 974 681 l 468 681 l 457 618 l 918 618 l 868 354 l 408 354 l 396 290 l 900 290 l 846 0 l -28 0 l 153 972 l 1028 972 l 974 681 m 736 1331 l 1079 1331 l 815 1042 l 390 1042 l 257 1331 l 601 1331 l 622 1172 l 643 1172 l 736 1331 z "},"Ĝ":{"ha":1207,"x_min":15,"x_max":1172,"o":"m 629 649 q 453 506 493 649 q 462 356 429 415 q 576 296 494 296 q 676 322 639 296 l 681 343 l 601 343 l 633 519 l 1150 519 l 1053 0 l 815 0 l 822 43 q 519 -26 692 -26 q 315 11 411 -26 q 148 116 218 49 q 47 287 78 183 q 39 513 15 390 q 235 868 82 738 q 629 999 389 999 q 909 944 783 999 q 1103 785 1035 889 q 1154 551 1172 682 l 751 551 q 717 624 749 599 q 629 649 685 650 m 757 1042 l 736 1200 l 715 1200 l 622 1042 l 279 1042 l 543 1331 l 969 1331 l 1101 1042 l 757 1042 z "},"ĝ":{"ha":1239,"x_min":14,"x_max":1225,"o":"m 654 649 q 523 611 576 649 q 451 506 469 574 q 469 356 428 417 q 601 296 511 296 q 721 326 667 296 l 724 343 l 654 343 l 688 519 l 1203 519 l 1106 0 l 868 0 l 878 56 q 544 -26 729 -26 q 336 11 436 -26 q 160 116 236 49 q 49 288 85 183 q 38 513 14 392 q 242 867 79 736 q 654 999 404 999 q 942 944 810 999 q 1149 785 1074 889 q 1207 551 1225 681 l 804 551 q 756 622 800 596 q 654 649 713 649 m 785 1042 l 764 1200 l 743 1200 l 650 1042 l 307 1042 l 571 1331 l 997 1331 l 1129 1042 l 785 1042 z "},"Ğ":{"ha":1207,"x_min":15,"x_max":1172,"o":"m 629 649 q 453 506 493 649 q 462 356 429 415 q 576 296 494 296 q 676 322 639 296 l 681 343 l 601 343 l 633 519 l 1150 519 l 1053 0 l 815 0 l 822 43 q 519 -26 692 -26 q 315 11 411 -26 q 148 116 218 49 q 47 287 78 183 q 39 513 15 390 q 235 868 82 738 q 629 999 389 999 q 909 944 783 999 q 1103 785 1035 889 q 1154 551 1172 682 l 751 551 q 717 624 749 599 q 629 649 685 650 m 819 1338 l 1029 1338 q 671 1026 972 1026 q 457 1114 528 1026 q 411 1338 386 1201 l 622 1338 q 634 1263 613 1289 q 701 1236 656 1236 q 819 1338 800 1236 z "},"ğ":{"ha":1239,"x_min":14,"x_max":1225,"o":"m 654 649 q 523 611 576 649 q 451 506 469 574 q 469 356 428 417 q 601 296 511 296 q 721 326 667 296 l 724 343 l 654 343 l 688 519 l 1203 519 l 1106 0 l 868 0 l 878 56 q 544 -26 729 -26 q 336 11 436 -26 q 160 116 236 49 q 49 288 85 183 q 38 513 14 392 q 242 867 79 736 q 654 999 404 999 q 942 944 810 999 q 1149 785 1074 889 q 1207 551 1225 681 l 804 551 q 756 622 800 596 q 654 649 713 649 m 847 1338 l 1057 1338 q 699 1026 1000 1026 q 485 1114 556 1026 q 439 1338 414 1201 l 650 1338 q 662 1263 640 1289 q 729 1236 683 1236 q 847 1338 828 1236 z "},"Ġ":{"ha":1207,"x_min":15,"x_max":1172,"o":"m 629 649 q 453 506 493 649 q 462 356 429 415 q 576 296 494 296 q 676 322 639 296 l 681 343 l 601 343 l 633 519 l 1150 519 l 1053 0 l 815 0 l 822 43 q 519 -26 692 -26 q 315 11 411 -26 q 148 116 218 49 q 47 287 78 183 q 39 513 15 390 q 235 868 82 738 q 629 999 389 999 q 909 944 783 999 q 1103 785 1035 889 q 1154 551 1172 682 l 751 551 q 717 624 749 599 q 629 649 685 650 m 724 1374 q 846 1315 804 1374 q 874 1183 888 1257 q 806 1069 860 1113 q 681 1026 751 1026 q 563 1088 606 1026 q 533 1222 521 1149 q 600 1333 547 1292 q 724 1374 653 1374 z "},"ġ":{"ha":1239,"x_min":14,"x_max":1225,"o":"m 654 649 q 523 611 576 649 q 451 506 469 574 q 469 356 428 417 q 601 296 511 296 q 721 326 667 296 l 724 343 l 654 343 l 688 519 l 1203 519 l 1106 0 l 868 0 l 878 56 q 544 -26 729 -26 q 336 11 436 -26 q 160 116 236 49 q 49 288 85 183 q 38 513 14 392 q 242 867 79 736 q 654 999 404 999 q 942 944 810 999 q 1149 785 1074 889 q 1207 551 1225 681 l 804 551 q 756 622 800 596 q 654 649 713 649 m 751 1374 q 874 1315 832 1374 q 901 1183 915 1257 q 833 1069 888 1113 q 708 1026 779 1026 q 591 1088 633 1026 q 561 1222 549 1149 q 628 1333 575 1292 q 751 1374 681 1374 z "},"Ģ":{"ha":1207,"x_min":15,"x_max":1172,"o":"m 629 649 q 453 506 493 649 q 462 356 429 415 q 576 296 494 296 q 676 322 639 296 l 681 343 l 601 343 l 633 519 l 1150 519 l 1053 0 l 815 0 l 822 43 q 519 -26 692 -26 q 315 11 411 -26 q 148 116 218 49 q 47 287 78 183 q 39 513 15 390 q 235 868 82 738 q 629 999 389 999 q 909 944 783 999 q 1103 785 1035 889 q 1154 551 1172 682 l 751 551 q 717 624 749 599 q 629 649 685 650 m 375 -61 l 718 -61 l 493 -350 l 217 -350 l 375 -61 z "},"ģ":{"ha":1239,"x_min":14,"x_max":1225,"o":"m 654 649 q 523 611 576 649 q 451 506 469 574 q 469 356 428 417 q 601 296 511 296 q 721 326 667 296 l 724 343 l 654 343 l 688 519 l 1203 519 l 1106 0 l 868 0 l 878 56 q 544 -26 729 -26 q 336 11 436 -26 q 160 116 236 49 q 49 288 85 183 q 38 513 14 392 q 242 867 79 736 q 654 999 404 999 q 942 944 810 999 q 1149 785 1074 889 q 1207 551 1225 681 l 804 551 q 756 622 800 596 q 654 649 713 649 m 524 1042 l 528 1071 l 751 1424 l 1003 1424 l 857 1042 l 524 1042 z "},"Ĥ":{"ha":1144,"x_min":-28,"x_max":1172,"o":"m 803 972 l 1172 972 l 992 0 l 622 0 l 682 321 l 403 321 l 343 0 l -28 0 l 153 972 l 524 972 l 464 651 l 743 651 l 803 972 m 736 1042 l 715 1200 l 694 1200 l 601 1042 l 258 1042 l 522 1331 l 949 1331 l 1081 1042 l 736 1042 z "},"ĥ":{"ha":1250,"x_min":-28,"x_max":1278,"o":"m 908 972 l 1278 972 l 1097 0 l 728 0 l 788 321 l 401 321 l 342 0 l -28 0 l 153 972 l 522 972 l 464 651 l 849 651 l 908 972 m 792 1042 l 771 1200 l 750 1200 l 657 1042 l 314 1042 l 578 1331 l 1004 1331 l 1136 1042 l 792 1042 z "},"Ħ":{"ha":1144,"x_min":-33,"x_max":1219,"o":"m 1219 911 l 1186 726 l 1121 726 l 986 0 l 617 0 l 676 321 l 396 321 l 338 0 l -33 0 l 101 726 l 40 726 l 75 911 l 136 911 l 147 972 l 518 972 l 506 911 l 786 911 l 797 972 l 1167 972 l 1156 911 l 1219 911 m 738 651 l 751 726 l 472 726 l 458 651 l 738 651 z "},"ħ":{"ha":1253,"x_min":-32,"x_max":1328,"o":"m 1328 911 l 1293 726 l 1231 726 l 1094 0 l 725 0 l 785 321 l 399 321 l 339 0 l -32 0 l 104 726 l 42 726 l 76 911 l 138 911 l 149 972 l 519 972 l 508 911 l 894 911 l 906 972 l 1276 972 l 1264 911 l 1328 911 m 846 651 l 860 726 l 474 726 l 460 651 l 846 651 z "},"Ĩ":{"ha":496,"x_min":-28,"x_max":678,"o":"m 153 972 l 524 972 l 343 0 l -28 0 l 153 972 m 504 1346 l 678 1346 q 657 1244 665 1282 q 631 1160 649 1207 q 594 1088 614 1113 q 543 1044 575 1063 q 469 1026 511 1026 q 357 1070 418 1026 q 276 1114 296 1114 q 243 1099 254 1114 q 225 1043 232 1085 l 40 1043 q 119 1289 71 1211 q 268 1367 168 1367 q 381 1326 321 1367 q 458 1286 442 1286 q 504 1346 493 1286 z "},"ĩ":{"ha":806,"x_min":-33,"x_max":839,"o":"m 768 642 l 615 642 l 558 331 l 710 331 l 649 0 l -33 0 l 29 331 l 188 331 l 246 642 l 88 642 l 149 972 l 829 972 l 768 642 m 665 1346 l 839 1346 q 818 1244 826 1282 q 792 1160 810 1207 q 756 1088 775 1113 q 704 1044 736 1063 q 631 1026 672 1026 q 518 1070 579 1026 q 438 1114 457 1114 q 404 1099 415 1114 q 386 1043 393 1085 l 201 1043 q 281 1289 232 1211 q 429 1367 329 1367 q 542 1326 482 1367 q 619 1286 603 1286 q 665 1346 654 1286 z "},"Ī":{"ha":496,"x_min":-28,"x_max":688,"o":"m 153 972 l 524 972 l 343 0 l -28 0 l 153 972 m 114 1331 l 688 1331 l 635 1042 l 60 1042 l 114 1331 z "},"ī":{"ha":807,"x_min":-35,"x_max":842,"o":"m 767 642 l 614 642 l 557 331 l 708 331 l 647 0 l -35 0 l 28 331 l 186 331 l 244 642 l 86 642 l 147 972 l 828 972 l 767 642 m 268 1331 l 842 1331 l 789 1042 l 214 1042 l 268 1331 z "},"Ĭ":{"ha":496,"x_min":-28,"x_max":713,"o":"m 153 972 l 524 972 l 343 0 l -28 0 l 153 972 m 503 1338 l 713 1338 q 354 1026 656 1026 q 140 1114 211 1026 q 94 1338 69 1201 l 306 1338 q 317 1263 296 1289 q 385 1236 339 1236 q 503 1338 483 1236 z "},"ĭ":{"ha":807,"x_min":-28,"x_max":865,"o":"m 774 642 l 621 642 l 564 331 l 715 331 l 654 0 l -28 0 l 35 331 l 193 331 l 251 642 l 93 642 l 154 972 l 835 972 l 774 642 m 656 1338 l 865 1338 q 507 1026 808 1026 q 293 1114 364 1026 q 247 1338 222 1201 l 458 1338 q 470 1263 449 1289 q 538 1236 492 1236 q 656 1338 636 1236 z "},"Į":{"ha":496,"x_min":-31,"x_max":524,"o":"m 524 972 l 343 0 q 283 -118 269 -79 q 343 -126 292 -146 l 308 -315 q 213 -352 271 -340 q 94 -350 154 -364 q 11 -290 35 -336 q 37 -124 -31 -210 q 192 0 104 -39 l -28 0 l 153 972 l 524 972 z "},"į":{"ha":807,"x_min":-28,"x_max":835,"o":"m 774 642 l 621 642 l 563 331 l 715 331 l 654 0 q 594 -118 581 -79 q 654 -126 603 -146 l 618 -315 q 522 -352 581 -340 q 405 -350 464 -364 q 322 -290 346 -336 q 310 -199 301 -243 q 353 -115 319 -156 q 426 -46 388 -75 q 501 0 465 -17 l -28 0 l 33 331 l 193 331 l 250 642 l 92 642 l 153 972 l 835 972 l 774 642 z "},"İ":{"ha":496,"x_min":-28,"x_max":556,"o":"m 153 972 l 524 972 l 343 0 l -28 0 l 153 972 m 392 1374 q 514 1315 472 1374 q 542 1183 556 1257 q 474 1069 528 1113 q 349 1026 419 1026 q 231 1088 274 1026 q 201 1222 189 1149 q 268 1333 215 1292 q 392 1374 321 1374 z "},"ı":{"ha":807,"x_min":-28,"x_max":835,"o":"m 774 642 l 621 642 l 564 331 l 715 331 l 654 0 l -28 0 l 35 331 l 193 331 l 251 642 l 93 642 l 154 972 l 835 972 l 774 642 z "},"Ĳ":{"ha":1460,"x_min":-28,"x_max":1488,"o":"m 153 972 l 524 972 l 343 0 l -28 0 l 153 972 m 764 972 l 1488 972 q 1388 433 1443 731 q 1224 87 1344 200 q 863 -26 1103 -26 q 554 98 668 -26 q 478 422 440 222 l 849 422 q 860 347 839 374 q 924 319 881 319 q 1017 433 996 319 q 1056 642 1029 489 l 701 642 l 764 972 z "},"ĳ":{"ha":1774,"x_min":-28,"x_max":1801,"o":"m 774 642 l 621 642 l 564 331 l 715 331 l 654 0 l -28 0 l 35 331 l 193 331 l 251 642 l 93 642 l 154 972 l 835 972 l 774 642 m 1038 971 l 1801 971 q 1701 432 1756 729 q 1537 87 1658 200 q 1175 -26 1415 -26 q 850 80 946 -26 q 789 374 754 186 q 817 524 810 482 l 1183 524 q 1171 456 1181 504 q 1161 407 1161 408 q 1236 318 1146 318 q 1299 347 1278 318 q 1331 432 1319 376 q 1339 473 1333 443 q 1353 553 1344 503 q 1369 640 1363 603 l 976 640 l 1038 971 z "},"Ĵ":{"ha":1006,"x_min":-14,"x_max":1033,"o":"m 310 972 l 1033 972 q 933 433 989 731 q 769 87 890 200 q 408 -26 649 -26 q 100 98 214 -26 q 24 422 -14 222 l 394 422 q 406 347 385 374 q 469 319 426 319 q 563 433 542 319 q 601 642 575 489 l 247 642 l 310 972 m 674 1042 l 653 1200 l 632 1200 l 539 1042 l 196 1042 l 460 1331 l 886 1331 l 1018 1042 l 674 1042 z "},"ĵ":{"ha":1008,"x_min":-11,"x_max":1036,"o":"m 272 971 l 1036 971 q 936 432 990 729 q 772 87 893 200 q 410 -26 650 -26 q 85 80 181 -26 q 24 374 -11 186 q 51 524 44 482 l 418 524 q 406 456 415 504 q 396 407 396 408 q 471 318 381 318 q 533 347 513 318 q 565 432 554 376 q 574 473 568 443 q 588 553 579 503 q 604 640 597 603 l 211 640 l 272 971 m 674 1042 l 653 1200 l 632 1200 l 539 1042 l 196 1042 l 460 1331 l 886 1331 l 1018 1042 l 674 1042 z "},"Ķ":{"ha":1101,"x_min":-28,"x_max":1129,"o":"m 1129 972 l 813 489 l 990 0 l 594 0 l 485 321 l 401 321 l 343 0 l -28 0 l 153 972 l 524 972 l 464 651 l 536 651 l 707 972 l 1129 972 m 306 -61 l 649 -61 l 424 -350 l 147 -350 l 306 -61 z "},"ķ":{"ha":1168,"x_min":-28,"x_max":1196,"o":"m 1196 972 l 879 488 l 1057 0 l 661 0 l 551 321 l 403 321 l 343 0 l -28 0 l 153 972 l 524 972 l 464 651 l 594 651 l 774 972 l 1196 972 m 333 -61 l 676 -61 l 451 -350 l 175 -350 l 333 -61 z "},"ĸ":{"ha":1168,"x_min":-28,"x_max":1196,"o":"m 1196 972 l 879 488 l 1057 0 l 661 0 l 551 321 l 403 321 l 343 0 l -28 0 l 153 972 l 524 972 l 464 651 l 594 651 l 774 972 l 1196 972 z "},"Ĺ":{"ha":974,"x_min":-28,"x_max":904,"o":"m 404 331 l 904 331 l 843 0 l -28 0 l 153 972 l 524 972 l 404 331 m 374 1331 l 717 1331 l 493 1042 l 215 1042 l 374 1331 z "},"ĺ":{"ha":1014,"x_min":-28,"x_max":944,"o":"m 404 331 l 944 331 l 883 0 l -28 0 l 153 972 l 524 972 l 404 331 m 374 1331 l 717 1331 l 493 1042 l 215 1042 l 374 1331 z "},"Ļ":{"ha":974,"x_min":-28,"x_max":904,"o":"m 404 331 l 904 331 l 843 0 l -28 0 l 153 972 l 524 972 l 404 331 m 276 -61 l 619 -61 l 394 -350 l 118 -350 l 276 -61 z "},"ļ":{"ha":1014,"x_min":-28,"x_max":944,"o":"m 404 331 l 944 331 l 883 0 l -28 0 l 153 972 l 524 972 l 404 331 m 276 -61 l 619 -61 l 394 -350 l 118 -350 l 276 -61 z "},"Ľ":{"ha":974,"x_min":-28,"x_max":1018,"o":"m 404 331 l 904 331 l 843 0 l -28 0 l 153 972 l 524 972 l 404 331 m 1018 972 l 1013 943 l 790 590 l 539 590 l 685 972 l 1018 972 z "},"ľ":{"ha":1014,"x_min":-28,"x_max":1046,"o":"m 404 331 l 944 331 l 883 0 l -28 0 l 153 972 l 524 972 l 404 331 m 1046 972 l 1040 943 l 818 590 l 567 590 l 713 972 l 1046 972 z "},"Ŀ":{"ha":974,"x_min":-28,"x_max":944,"o":"m 404 331 l 904 331 l 843 0 l -28 0 l 153 972 l 524 972 l 404 331 m 781 725 q 903 667 861 725 q 931 535 944 608 q 863 421 917 464 q 738 378 808 378 q 620 439 663 378 q 590 574 578 500 q 657 684 604 643 q 781 725 710 725 z "},"ŀ":{"ha":1014,"x_min":-28,"x_max":972,"o":"m 404 331 l 944 331 l 883 0 l -28 0 l 153 972 l 524 972 l 404 331 m 808 725 q 931 667 889 725 q 958 535 972 608 q 890 421 944 464 q 765 378 836 378 q 648 439 690 378 q 618 574 606 500 q 685 684 632 643 q 808 725 738 725 z "},"Ł":{"ha":974,"x_min":-49,"x_max":904,"o":"m 403 332 l 904 332 l 842 0 l -28 0 l 31 314 l -25 293 l -49 543 l 82 593 l 153 972 l 522 972 l 479 743 l 560 774 l 583 522 l 428 464 l 403 332 z "},"ł":{"ha":1014,"x_min":-47,"x_max":944,"o":"m 404 331 l 944 331 l 883 0 l -28 0 l 31 313 l -24 293 l -47 543 l 83 592 l 154 972 l 524 972 l 481 742 l 561 772 l 585 522 l 429 464 l 404 331 z "},"Ń":{"ha":1192,"x_min":-28,"x_max":1219,"o":"m 1219 972 l 1039 0 l 663 0 l 439 483 l 432 483 l 342 0 l -28 0 l 153 972 l 526 972 l 753 490 l 758 490 l 849 972 l 1219 972 m 725 1331 l 1068 1331 l 844 1042 l 567 1042 l 725 1331 z "},"ń":{"ha":1218,"x_min":-28,"x_max":1246,"o":"m 1246 972 l 1065 0 l 690 0 l 453 483 l 432 483 l 343 0 l -28 0 l 153 972 l 528 972 l 767 489 l 786 489 l 876 972 l 1246 972 m 725 1331 l 1068 1331 l 844 1042 l 567 1042 l 725 1331 z "},"Ņ":{"ha":1192,"x_min":-28,"x_max":1219,"o":"m 1219 972 l 1039 0 l 663 0 l 439 483 l 432 483 l 342 0 l -28 0 l 153 972 l 526 972 l 753 490 l 758 490 l 849 972 l 1219 972 m 322 -61 l 665 -61 l 440 -350 l 164 -350 l 322 -61 z "},"ņ":{"ha":1218,"x_min":-28,"x_max":1246,"o":"m 1246 972 l 1065 0 l 690 0 l 453 483 l 432 483 l 343 0 l -28 0 l 153 972 l 528 972 l 767 489 l 786 489 l 876 972 l 1246 972 m 336 -61 l 679 -61 l 454 -350 l 178 -350 l 336 -61 z "},"Ň":{"ha":1192,"x_min":-28,"x_max":1219,"o":"m 1219 972 l 1039 0 l 663 0 l 439 483 l 432 483 l 342 0 l -28 0 l 153 972 l 526 972 l 753 490 l 758 490 l 849 972 l 1219 972 m 831 1331 l 1174 1331 l 910 1042 l 485 1042 l 351 1331 l 696 1331 l 717 1172 l 738 1172 l 831 1331 z "},"ň":{"ha":1218,"x_min":-28,"x_max":1246,"o":"m 1246 972 l 1065 0 l 690 0 l 453 483 l 432 483 l 343 0 l -28 0 l 153 972 l 528 972 l 767 489 l 786 489 l 876 972 l 1246 972 m 844 1331 l 1188 1331 l 924 1042 l 499 1042 l 365 1331 l 710 1331 l 731 1172 l 751 1172 l 844 1331 z "},"ŉ":{"ha":1624,"x_min":28,"x_max":1651,"o":"m 1651 972 l 1471 0 l 1096 0 l 858 483 l 838 483 l 749 0 l 378 0 l 558 972 l 933 972 l 1172 489 l 1192 489 l 1282 972 l 1651 972 m 507 972 l 501 943 l 279 590 l 28 590 l 174 972 l 507 972 z "},"Ŋ":{"ha":1192,"x_min":-28,"x_max":1219,"o":"m 849 972 l 1219 972 l 1039 0 q 876 -337 996 -229 q 514 -444 756 -444 q 575 -112 546 -262 q 735 0 714 -112 l 664 0 l 439 483 l 432 483 l 342 0 l -28 0 l 153 972 l 526 972 l 753 490 l 760 490 l 849 972 z "},"ŋ":{"ha":1232,"x_min":-28,"x_max":1260,"o":"m 890 972 l 1260 972 l 1079 0 q 917 -338 1036 -231 q 554 -446 797 -446 q 615 -114 588 -258 q 775 0 753 -114 l 704 0 l 453 483 l 433 483 l 343 0 l -28 0 l 153 972 l 528 972 l 781 490 l 800 490 l 890 972 z "},"Ō":{"ha":1161,"x_min":15,"x_max":1169,"o":"m 640 999 q 1030 847 890 999 q 1122 444 1169 696 q 924 108 1085 243 q 526 -26 763 -26 q 303 8 403 -26 q 136 110 204 43 q 42 281 68 176 q 40 515 15 385 q 240 869 81 740 q 640 999 399 999 m 739 475 q 713 599 753 549 q 600 650 672 650 q 483 609 528 650 q 425 496 438 568 q 452 375 411 428 q 560 322 493 322 q 677 360 629 322 q 739 475 725 399 m 404 1331 l 978 1331 l 925 1042 l 350 1042 l 404 1331 z "},"ō":{"ha":1242,"x_min":7,"x_max":1226,"o":"m 681 999 q 917 960 810 999 q 1095 851 1024 921 q 1197 675 1167 781 q 1203 444 1226 569 q 997 108 1165 242 q 567 -26 828 -26 q 258 33 388 -26 q 68 217 129 93 q 39 515 7 342 q 244 872 82 744 q 681 999 407 999 m 806 475 q 776 601 819 551 q 639 650 733 650 q 438 496 467 650 q 470 374 425 425 q 600 322 515 322 q 806 475 778 322 m 446 1331 l 1019 1331 l 967 1042 l 392 1042 l 446 1331 z "},"Ŏ":{"ha":1161,"x_min":15,"x_max":1169,"o":"m 640 999 q 1030 847 890 999 q 1122 444 1169 696 q 924 108 1085 243 q 526 -26 763 -26 q 303 8 403 -26 q 136 110 204 43 q 42 281 68 176 q 40 515 15 385 q 240 869 81 740 q 640 999 399 999 m 739 475 q 713 599 753 549 q 600 650 672 650 q 483 609 528 650 q 425 496 438 568 q 452 375 411 428 q 560 322 493 322 q 677 360 629 322 q 739 475 725 399 m 807 1338 l 1017 1338 q 658 1026 960 1026 q 444 1114 515 1026 q 399 1338 374 1201 l 610 1338 q 622 1263 600 1289 q 689 1236 643 1236 q 807 1338 788 1236 z "},"ŏ":{"ha":1242,"x_min":7,"x_max":1226,"o":"m 681 999 q 917 960 810 999 q 1095 851 1024 921 q 1197 675 1167 781 q 1203 444 1226 569 q 997 108 1165 242 q 567 -26 828 -26 q 258 33 388 -26 q 68 217 129 93 q 39 515 7 342 q 244 872 82 744 q 681 999 407 999 m 806 475 q 776 601 819 551 q 639 650 733 650 q 438 496 467 650 q 470 374 425 425 q 600 322 515 322 q 806 475 778 322 m 849 1338 l 1058 1338 q 700 1026 1001 1026 q 486 1114 557 1026 q 440 1338 415 1201 l 651 1338 q 663 1263 642 1289 q 731 1236 685 1236 q 849 1338 829 1236 z "},"Ő":{"ha":1161,"x_min":15,"x_max":1185,"o":"m 640 999 q 1030 847 890 999 q 1122 444 1169 696 q 924 108 1085 243 q 526 -26 763 -26 q 303 8 403 -26 q 136 110 204 43 q 42 281 68 176 q 40 515 15 385 q 240 869 81 740 q 640 999 399 999 m 739 475 q 713 599 753 549 q 600 650 672 650 q 483 609 528 650 q 425 496 438 568 q 452 375 411 428 q 560 322 493 322 q 677 360 629 322 q 739 475 725 399 m 467 1331 l 810 1331 l 586 1042 l 308 1042 l 467 1331 m 840 1331 l 1185 1331 l 960 1042 l 682 1042 l 840 1331 z "},"ő":{"ha":1242,"x_min":7,"x_max":1226,"o":"m 681 999 q 917 960 810 999 q 1095 851 1024 921 q 1197 675 1167 781 q 1203 444 1226 569 q 997 108 1165 242 q 567 -26 828 -26 q 258 33 388 -26 q 68 217 129 93 q 39 515 7 342 q 244 872 82 744 q 681 999 407 999 m 806 475 q 776 601 819 551 q 639 650 733 650 q 438 496 467 650 q 470 374 425 425 q 600 322 515 322 q 806 475 778 322 m 508 1331 l 851 1331 l 628 1042 l 350 1042 l 508 1331 m 882 1331 l 1226 1331 l 1001 1042 l 724 1042 l 882 1331 z "},"Œ":{"ha":1533,"x_min":-3,"x_max":1575,"o":"m 1521 681 l 1069 681 l 1058 618 l 1465 618 l 1417 354 l 1008 354 l 997 290 l 1449 290 l 1394 0 l 493 0 q 108 135 219 0 q 40 503 -3 271 q 241 865 89 757 q 656 972 393 972 l 1575 972 l 1521 681 m 563 332 l 635 332 l 692 639 l 629 639 q 425 486 456 639 q 563 332 396 332 z "},"œ":{"ha":1665,"x_min":-3,"x_max":1707,"o":"m 1653 682 l 1149 682 l 1138 618 l 1597 618 l 1549 354 l 1088 354 l 1076 292 l 1581 292 l 1526 0 l 492 0 q 108 135 218 0 q 40 503 -3 271 q 240 865 88 757 q 656 972 392 972 l 1707 972 l 1653 682 m 561 333 l 714 333 l 771 640 l 629 640 q 425 486 453 640 q 561 333 396 333 z "},"Ŕ":{"ha":1094,"x_min":-28,"x_max":1035,"o":"m 1003 615 q 853 344 969 428 l 978 0 l 581 0 l 500 260 l 390 260 l 342 0 l -28 0 l 153 972 l 656 972 q 935 878 836 972 q 1003 615 1035 785 m 561 694 l 471 694 l 442 538 l 532 538 q 642 615 626 538 q 626 675 649 656 q 561 694 604 694 m 551 1331 l 894 1331 l 671 1042 l 393 1042 l 551 1331 z "},"ŕ":{"ha":1149,"x_min":-28,"x_max":1088,"o":"m 1057 615 q 906 344 1022 428 l 1032 0 l 635 0 l 554 260 l 392 260 l 343 0 l -28 0 l 153 972 l 708 972 q 989 878 890 972 q 1057 615 1088 785 m 472 694 l 443 538 l 586 538 q 660 556 633 538 q 694 615 686 574 q 615 694 710 694 l 472 694 m 607 1331 l 950 1331 l 726 1042 l 449 1042 l 607 1331 z "},"Ŗ":{"ha":1094,"x_min":-28,"x_max":1035,"o":"m 1003 615 q 853 344 969 428 l 978 0 l 581 0 l 500 260 l 390 260 l 342 0 l -28 0 l 153 972 l 656 972 q 935 878 836 972 q 1003 615 1035 785 m 561 694 l 471 694 l 442 538 l 532 538 q 642 615 626 538 q 626 675 649 656 q 561 694 604 694 m 288 -61 l 631 -61 l 406 -350 l 129 -350 l 288 -61 z "},"ŗ":{"ha":1149,"x_min":-28,"x_max":1088,"o":"m 1057 615 q 906 344 1022 428 l 1032 0 l 635 0 l 554 260 l 392 260 l 343 0 l -28 0 l 153 972 l 708 972 q 989 878 890 972 q 1057 615 1088 785 m 472 694 l 443 538 l 586 538 q 660 556 633 538 q 694 615 686 574 q 615 694 710 694 l 472 694 m 315 -61 l 658 -61 l 433 -350 l 157 -350 l 315 -61 z "},"Ř":{"ha":1094,"x_min":-28,"x_max":1035,"o":"m 1003 615 q 853 344 969 428 l 978 0 l 581 0 l 500 260 l 390 260 l 342 0 l -28 0 l 153 972 l 656 972 q 935 878 836 972 q 1003 615 1035 785 m 561 694 l 471 694 l 442 538 l 532 538 q 642 615 626 538 q 626 675 649 656 q 561 694 604 694 m 685 1331 l 1028 1331 l 764 1042 l 339 1042 l 206 1331 l 550 1331 l 571 1172 l 592 1172 l 685 1331 z "},"ř":{"ha":1149,"x_min":-28,"x_max":1097,"o":"m 1057 615 q 906 344 1022 428 l 1032 0 l 635 0 l 554 260 l 392 260 l 343 0 l -28 0 l 153 972 l 708 972 q 989 878 890 972 q 1057 615 1088 785 m 472 694 l 443 538 l 586 538 q 660 556 633 538 q 694 615 686 574 q 615 694 710 694 l 472 694 m 754 1331 l 1097 1331 l 833 1042 l 408 1042 l 275 1331 l 619 1331 l 640 1172 l 661 1172 l 754 1331 z "},"Ś":{"ha":1017,"x_min":-7,"x_max":1013,"o":"m 460 -26 q 105 78 217 -26 q 19 328 -7 183 l 367 328 q 442 242 353 247 q 540 282 535 233 q 518 333 543 311 q 438 374 493 356 q 181 508 254 432 q 133 724 107 585 q 188 847 146 794 q 280 927 229 899 q 397 972 331 956 q 516 994 464 989 q 624 999 568 999 q 761 981 693 999 q 890 925 829 963 q 982 820 951 888 q 996 665 1013 753 l 651 665 q 639 722 658 701 q 586 742 619 742 q 507 697 515 742 q 507 681 506 689 q 515 667 508 674 q 527 656 521 661 q 545 644 533 650 q 567 635 557 639 q 593 625 576 631 q 620 616 610 619 q 650 607 631 613 q 681 597 669 601 q 858 515 806 557 q 936 276 964 431 q 782 48 908 122 q 460 -26 656 -26 m 624 1331 l 967 1331 l 743 1042 l 465 1042 l 624 1331 z "},"ś":{"ha":1054,"x_min":-7,"x_max":1051,"o":"m 1035 665 l 692 665 q 667 720 697 700 q 597 742 638 740 q 492 697 501 746 q 501 671 489 683 q 538 649 513 658 q 588 631 564 639 q 649 614 613 624 q 706 597 686 604 q 875 533 835 556 q 989 276 1021 450 q 485 -26 933 -26 q 116 80 239 -26 q 19 328 -7 186 l 365 328 q 388 265 358 283 q 468 242 417 246 q 579 282 571 233 q 565 331 585 315 q 464 374 544 347 q 306 433 369 404 q 192 503 243 463 q 124 599 142 544 q 118 724 106 653 q 636 999 169 999 q 778 981 706 999 q 916 925 850 963 q 1017 820 982 888 q 1035 665 1051 753 m 651 1331 l 994 1331 l 771 1042 l 493 1042 l 651 1331 z "},"Ŝ":{"ha":1017,"x_min":-7,"x_max":1013,"o":"m 460 -26 q 105 78 217 -26 q 19 328 -7 183 l 367 328 q 442 242 353 247 q 540 282 535 233 q 518 333 543 311 q 438 374 493 356 q 181 508 254 432 q 133 724 107 585 q 188 847 146 794 q 280 927 229 899 q 397 972 331 956 q 516 994 464 989 q 624 999 568 999 q 761 981 693 999 q 890 925 829 963 q 982 820 951 888 q 996 665 1013 753 l 651 665 q 639 722 658 701 q 586 742 619 742 q 507 697 515 742 q 507 681 506 689 q 515 667 508 674 q 527 656 521 661 q 545 644 533 650 q 567 635 557 639 q 593 625 576 631 q 620 616 610 619 q 650 607 631 613 q 681 597 669 601 q 858 515 806 557 q 936 276 964 431 q 782 48 908 122 q 460 -26 656 -26 m 658 1042 l 638 1200 l 617 1200 l 524 1042 l 181 1042 l 444 1331 l 871 1331 l 1003 1042 l 658 1042 z "},"ŝ":{"ha":1054,"x_min":-7,"x_max":1051,"o":"m 1035 665 l 692 665 q 667 720 697 700 q 597 742 638 740 q 492 697 501 746 q 501 671 489 683 q 538 649 513 658 q 588 631 564 639 q 649 614 613 624 q 706 597 686 604 q 875 533 835 556 q 989 276 1021 450 q 485 -26 933 -26 q 116 80 239 -26 q 19 328 -7 186 l 365 328 q 388 265 358 283 q 468 242 417 246 q 579 282 571 233 q 565 331 585 315 q 464 374 544 347 q 306 433 369 404 q 192 503 243 463 q 124 599 142 544 q 118 724 106 653 q 636 999 169 999 q 778 981 706 999 q 916 925 850 963 q 1017 820 982 888 q 1035 665 1051 753 m 686 1042 l 665 1200 l 644 1200 l 551 1042 l 208 1042 l 472 1331 l 899 1331 l 1031 1042 l 686 1042 z "},"Ş":{"ha":1017,"x_min":-6,"x_max":1008,"o":"m 994 665 l 651 665 q 639 722 658 701 q 585 742 619 742 q 507 697 515 742 q 507 681 506 689 q 515 667 508 674 q 527 656 521 661 q 545 644 533 650 q 567 635 557 639 q 593 625 576 631 q 620 616 610 619 q 650 607 631 613 q 681 597 669 601 q 869 506 814 557 q 936 276 963 422 q 796 58 908 132 q 506 -25 683 -17 l 475 -57 q 596 -108 564 -60 q 603 -235 628 -156 q 261 -342 551 -403 l 289 -190 q 381 -186 374 -222 q 369 -164 383 -168 q 324 -164 354 -160 l 342 -67 l 385 -22 q 87 95 179 -6 q 19 328 -6 196 l 367 328 q 379 265 358 283 q 442 242 400 246 q 540 282 535 233 q 518 333 543 311 q 438 374 493 356 q 181 509 254 432 q 133 724 107 586 q 188 847 146 794 q 279 927 229 899 q 397 972 329 956 q 515 994 464 989 q 624 999 567 999 q 733 988 678 999 q 842 952 788 978 q 934 890 896 926 q 990 794 972 853 q 994 665 1008 736 z "},"ş":{"ha":1054,"x_min":-6,"x_max":1049,"o":"m 1035 665 l 692 665 q 668 720 697 700 q 599 742 639 740 q 492 697 501 749 q 501 671 489 683 q 538 649 513 658 q 588 631 564 639 q 650 614 613 624 q 707 597 688 604 q 878 532 836 556 q 990 276 1021 450 q 517 -25 935 -17 l 486 -57 q 607 -108 575 -60 q 614 -235 639 -156 q 272 -342 563 -403 l 300 -190 q 392 -186 385 -221 q 380 -164 394 -168 q 335 -164 365 -160 l 353 -67 l 397 -22 q 94 99 194 -3 q 19 328 -6 200 l 367 328 q 388 265 358 283 q 468 242 417 246 q 581 282 571 233 q 565 331 586 315 q 464 374 544 347 q 306 433 369 404 q 193 503 243 463 q 125 599 143 544 q 119 724 107 654 q 189 869 135 811 q 324 954 243 928 q 477 990 406 981 q 638 999 549 999 q 749 988 692 999 q 864 952 806 978 q 965 890 922 926 q 1028 794 1007 853 q 1035 665 1049 736 z "},"Š":{"ha":1017,"x_min":-7,"x_max":1086,"o":"m 460 -26 q 105 78 217 -26 q 19 328 -7 183 l 367 328 q 442 242 353 247 q 540 282 535 233 q 518 333 543 311 q 438 374 493 356 q 181 508 254 432 q 133 724 107 585 q 188 847 146 794 q 280 927 229 899 q 397 972 331 956 q 516 994 464 989 q 624 999 568 999 q 761 981 693 999 q 890 925 829 963 q 982 820 951 888 q 996 665 1013 753 l 651 665 q 639 722 658 701 q 586 742 619 742 q 507 697 515 742 q 507 681 506 689 q 515 667 508 674 q 527 656 521 661 q 545 644 533 650 q 567 635 557 639 q 593 625 576 631 q 620 616 610 619 q 650 607 631 613 q 681 597 669 601 q 858 515 806 557 q 936 276 964 431 q 782 48 908 122 q 460 -26 656 -26 m 743 1331 l 1086 1331 l 822 1042 l 397 1042 l 264 1331 l 608 1331 l 629 1172 l 650 1172 l 743 1331 z "},"š":{"ha":1054,"x_min":-7,"x_max":1114,"o":"m 1035 665 l 692 665 q 667 720 697 700 q 597 742 638 740 q 492 697 501 746 q 501 671 489 683 q 538 649 513 658 q 588 631 564 639 q 649 614 613 624 q 706 597 686 604 q 875 533 835 556 q 989 276 1021 450 q 485 -26 933 -26 q 116 80 239 -26 q 19 328 -7 186 l 365 328 q 388 265 358 283 q 468 242 417 246 q 579 282 571 233 q 565 331 585 315 q 464 374 544 347 q 306 433 369 404 q 192 503 243 463 q 124 599 142 544 q 118 724 106 653 q 636 999 169 999 q 778 981 706 999 q 916 925 850 963 q 1017 820 982 888 q 1035 665 1051 753 m 771 1331 l 1114 1331 l 850 1042 l 425 1042 l 292 1331 l 636 1331 l 657 1172 l 678 1172 l 771 1331 z "},"Ţ":{"ha":1028,"x_min":56,"x_max":1090,"o":"m 1090 972 l 1028 642 l 729 642 l 611 0 l 240 0 l 360 642 l 56 642 l 117 972 l 1090 972 m 244 -61 l 588 -61 l 363 -350 l 86 -350 l 244 -61 z "},"ţ":{"ha":1086,"x_min":56,"x_max":1142,"o":"m 1142 972 l 1081 642 l 756 642 l 638 0 l 267 0 l 386 642 l 56 642 l 117 972 l 1142 972 m 272 -61 l 615 -61 l 390 -350 l 114 -350 l 272 -61 z "},"Ť":{"ha":1028,"x_min":56,"x_max":1090,"o":"m 1090 972 l 1028 642 l 729 642 l 611 0 l 240 0 l 360 642 l 56 642 l 117 972 l 1090 972 m 738 1331 l 1081 1331 l 817 1042 l 392 1042 l 258 1331 l 603 1331 l 624 1172 l 644 1172 l 738 1331 z "},"ť":{"ha":1538,"x_min":56,"x_max":1593,"o":"m 1142 972 l 1081 642 l 756 642 l 638 0 l 267 0 l 386 642 l 56 642 l 117 972 l 1142 972 m 1593 972 l 1588 943 l 1365 590 l 1114 590 l 1260 972 l 1593 972 z "},"Ŧ":{"ha":1035,"x_min":56,"x_max":1090,"o":"m 1028 642 l 731 642 l 701 486 l 894 486 l 861 301 l 667 301 l 611 0 l 240 0 l 296 301 l 111 301 l 146 486 l 331 486 l 360 642 l 56 642 l 118 972 l 1090 972 l 1028 642 z "},"ŧ":{"ha":1088,"x_min":56,"x_max":1143,"o":"m 1082 642 l 757 642 l 728 486 l 924 486 l 889 301 l 693 301 l 638 0 l 267 0 l 324 301 l 140 301 l 174 486 l 357 486 l 386 642 l 56 642 l 118 972 l 1143 972 l 1082 642 z "},"Ũ":{"ha":1051,"x_min":-40,"x_max":1079,"o":"m 708 972 l 1079 972 q 982 446 1038 749 q 924 244 960 326 q 828 98 889 161 q 674 4 768 35 q 447 -26 579 -26 q 49 446 -40 -26 l 147 972 l 515 972 q 415 440 431 522 q 489 319 394 319 q 610 439 586 319 l 708 972 m 785 1346 l 958 1346 q 938 1244 946 1282 q 912 1160 929 1207 q 875 1088 894 1113 q 824 1044 856 1063 q 750 1026 792 1026 q 638 1070 699 1026 q 557 1114 576 1114 q 524 1099 535 1114 q 506 1043 513 1085 l 321 1043 q 400 1289 351 1211 q 549 1367 449 1367 q 663 1326 603 1367 q 739 1286 722 1286 q 785 1346 774 1286 z "},"ũ":{"ha":1156,"x_min":3,"x_max":1183,"o":"m 813 972 l 1183 972 q 1085 446 1142 749 q 1024 244 1063 328 q 917 97 985 160 q 745 4 849 35 q 499 -26 642 -26 q 119 90 236 -26 q 47 446 3 206 l 144 972 l 513 972 q 415 444 431 526 q 441 356 406 392 q 539 319 476 319 q 657 352 611 319 q 714 442 703 385 l 813 972 m 813 1346 l 986 1346 q 965 1244 974 1282 q 940 1160 957 1207 q 903 1088 922 1113 q 851 1044 883 1063 q 778 1026 819 1026 q 665 1070 726 1026 q 585 1114 604 1114 q 551 1099 563 1114 q 533 1043 540 1085 l 349 1043 q 428 1289 379 1211 q 576 1367 476 1367 q 690 1326 631 1367 q 767 1286 750 1286 q 813 1346 801 1286 z "},"Ū":{"ha":1051,"x_min":-40,"x_max":1079,"o":"m 708 972 l 1079 972 q 982 446 1038 749 q 924 244 960 326 q 828 98 889 161 q 674 4 768 35 q 447 -26 579 -26 q 49 446 -40 -26 l 147 972 l 515 972 q 415 440 431 522 q 489 319 394 319 q 610 439 586 319 l 708 972 m 394 1331 l 968 1331 l 915 1042 l 340 1042 l 394 1331 z "},"ū":{"ha":1156,"x_min":3,"x_max":1183,"o":"m 813 972 l 1183 972 q 1085 446 1142 749 q 1024 244 1063 328 q 917 97 985 160 q 745 4 849 35 q 499 -26 642 -26 q 119 90 236 -26 q 47 446 3 206 l 144 972 l 513 972 q 415 444 431 526 q 441 356 406 392 q 539 319 476 319 q 657 352 611 319 q 714 442 703 385 l 813 972 m 436 1331 l 1010 1331 l 957 1042 l 382 1042 l 436 1331 z "},"Ŭ":{"ha":1051,"x_min":-40,"x_max":1079,"o":"m 708 972 l 1079 972 q 982 446 1038 749 q 924 244 960 326 q 828 98 889 161 q 674 4 768 35 q 447 -26 579 -26 q 49 446 -40 -26 l 147 972 l 515 972 q 415 440 431 522 q 489 319 394 319 q 610 439 586 319 l 708 972 m 756 1338 l 965 1338 q 607 1026 908 1026 q 393 1114 464 1026 q 347 1338 322 1201 l 558 1338 q 570 1263 549 1289 q 638 1236 592 1236 q 756 1338 736 1236 z "},"ŭ":{"ha":1156,"x_min":3,"x_max":1183,"o":"m 813 972 l 1183 972 q 1085 446 1142 749 q 1024 244 1063 328 q 917 97 985 160 q 745 4 849 35 q 499 -26 642 -26 q 119 90 236 -26 q 47 446 3 206 l 144 972 l 513 972 q 415 444 431 526 q 441 356 406 392 q 539 319 476 319 q 657 352 611 319 q 714 442 703 385 l 813 972 m 825 1338 l 1035 1338 q 676 1026 978 1026 q 463 1114 533 1026 q 417 1338 392 1201 l 628 1338 q 640 1263 618 1289 q 707 1236 661 1236 q 825 1338 806 1236 z "},"Ů":{"ha":1051,"x_min":-40,"x_max":1079,"o":"m 708 972 l 1079 972 q 982 446 1038 749 q 924 244 960 326 q 828 98 889 161 q 674 4 768 35 q 447 -26 579 -26 q 49 446 -40 -26 l 147 972 l 515 972 q 415 440 431 522 q 489 319 394 319 q 610 439 586 319 l 708 972 m 672 1426 q 817 1359 768 1426 q 850 1201 867 1292 q 771 1073 835 1119 q 611 1026 707 1026 q 467 1092 518 1026 q 431 1247 415 1158 q 672 1426 464 1426 m 593 1187 q 599 1177 593 1187 q 631 1168 606 1168 q 674 1183 656 1168 q 696 1221 692 1197 q 688 1265 700 1247 q 649 1283 676 1283 q 586 1231 596 1283 q 593 1187 581 1206 z "},"ů":{"ha":1156,"x_min":3,"x_max":1183,"o":"m 813 972 l 1183 972 q 1085 446 1142 749 q 1024 244 1063 328 q 917 97 985 160 q 745 4 849 35 q 499 -26 642 -26 q 119 90 236 -26 q 47 446 3 206 l 144 972 l 513 972 q 415 444 431 526 q 441 356 406 392 q 539 319 476 319 q 657 352 611 319 q 714 442 703 385 l 813 972 m 728 1426 q 873 1359 824 1426 q 906 1201 922 1292 q 826 1073 890 1119 q 667 1026 763 1026 q 522 1092 574 1026 q 486 1247 471 1158 q 728 1426 519 1426 m 649 1187 q 655 1177 649 1187 q 686 1168 661 1168 q 729 1183 711 1168 q 751 1221 747 1197 q 744 1265 756 1247 q 704 1283 732 1283 q 642 1231 651 1283 q 649 1187 636 1206 z "},"Ű":{"ha":1051,"x_min":-40,"x_max":1175,"o":"m 708 972 l 1079 972 q 982 446 1038 749 q 924 244 960 326 q 828 98 889 161 q 674 4 768 35 q 447 -26 579 -26 q 49 446 -40 -26 l 147 972 l 515 972 q 415 440 431 522 q 489 319 394 319 q 610 439 586 319 l 708 972 m 457 1331 l 800 1331 l 576 1042 l 299 1042 l 457 1331 m 831 1331 l 1175 1331 l 950 1042 l 672 1042 l 831 1331 z "},"ű":{"ha":1156,"x_min":3,"x_max":1217,"o":"m 813 972 l 1183 972 q 1085 446 1142 749 q 1024 244 1063 328 q 917 97 985 160 q 745 4 849 35 q 499 -26 642 -26 q 119 90 236 -26 q 47 446 3 206 l 144 972 l 513 972 q 415 444 431 526 q 441 356 406 392 q 539 319 476 319 q 657 352 611 319 q 714 442 703 385 l 813 972 m 499 1331 l 842 1331 l 618 1042 l 340 1042 l 499 1331 m 872 1331 l 1217 1331 l 992 1042 l 714 1042 l 872 1331 z "},"Ų":{"ha":1051,"x_min":-31,"x_max":1079,"o":"m 708 972 l 1079 972 q 981 446 1038 749 q 928 256 960 335 q 843 114 896 176 q 708 18 790 51 q 514 -24 626 -15 q 479 -125 456 -99 q 535 -126 494 -142 l 499 -315 q 403 -352 461 -340 q 286 -350 346 -364 q 203 -290 226 -336 q 215 -144 165 -218 q 344 -19 264 -69 q 49 446 -31 25 l 146 972 l 514 972 q 415 440 431 522 q 488 319 392 319 q 569 349 540 319 q 608 439 597 379 l 708 972 z "},"ų":{"ha":1156,"x_min":-32,"x_max":1185,"o":"m 814 972 l 1185 972 q 1086 446 1143 749 q 926 104 1044 219 q 565 -24 808 -11 q 526 -125 506 -97 q 583 -126 542 -143 l 549 -315 q 453 -352 511 -340 q 335 -350 394 -364 q 251 -290 275 -336 q 265 -144 215 -218 q 397 -21 315 -69 q 47 446 -32 22 l 146 972 l 514 972 q 415 444 431 526 q 441 356 406 392 q 540 319 476 319 q 658 352 613 319 q 715 442 704 385 l 814 972 z "},"Ŵ":{"ha":1783,"x_min":111,"x_max":1846,"o":"m 1422 972 l 1846 972 l 1378 0 l 928 0 l 885 483 l 874 483 l 646 0 l 208 0 l 111 972 l 508 972 l 533 411 l 539 411 l 774 972 l 1157 972 l 1185 411 l 1190 411 l 1422 972 m 1044 1042 l 1024 1200 l 1003 1200 l 910 1042 l 567 1042 l 831 1331 l 1257 1331 l 1389 1042 l 1044 1042 z "},"ŵ":{"ha":1901,"x_min":111,"x_max":1964,"o":"m 1526 972 l 1964 972 l 1496 0 l 993 0 l 949 483 l 913 483 l 683 0 l 208 0 l 111 972 l 507 972 l 533 411 l 564 411 l 800 972 l 1235 972 l 1264 411 l 1294 411 l 1526 972 m 1086 1042 l 1065 1200 l 1044 1200 l 951 1042 l 608 1042 l 872 1331 l 1299 1331 l 1431 1042 l 1086 1042 z "},"Ŷ":{"ha":1099,"x_min":111,"x_max":1161,"o":"m 1161 972 l 714 272 l 663 0 l 293 0 l 343 272 l 111 972 l 496 972 l 569 604 l 581 604 l 738 972 l 1161 972 m 703 1042 l 682 1200 l 661 1200 l 568 1042 l 225 1042 l 489 1331 l 915 1331 l 1047 1042 l 703 1042 z "},"ŷ":{"ha":1178,"x_min":111,"x_max":1240,"o":"m 1240 972 l 765 272 l 715 0 l 318 0 l 369 272 l 111 972 l 494 972 l 592 618 l 631 618 l 817 972 l 1240 972 m 744 1042 l 724 1200 l 703 1200 l 610 1042 l 267 1042 l 531 1331 l 957 1331 l 1089 1042 l 744 1042 z "},"Ÿ":{"ha":1099,"x_min":111,"x_max":1161,"o":"m 1161 972 l 714 272 l 663 0 l 293 0 l 343 272 l 111 972 l 496 972 l 569 604 l 581 604 l 738 972 l 1161 972 m 500 1374 q 622 1316 581 1374 q 650 1183 663 1258 q 582 1069 636 1113 q 457 1026 528 1026 q 340 1088 382 1026 q 310 1222 297 1149 q 376 1333 324 1292 q 500 1374 429 1374 m 894 1374 q 1016 1316 975 1374 q 1043 1183 1057 1258 q 975 1069 1029 1113 q 851 1026 921 1026 q 733 1088 776 1026 q 704 1222 690 1149 q 770 1333 718 1292 q 894 1374 822 1374 z "},"Ź":{"ha":990,"x_min":-42,"x_max":1018,"o":"m 921 331 l 858 0 l -42 0 l 28 371 l 469 631 l 471 639 l 119 639 l 182 972 l 1018 972 l 947 586 l 506 342 l 503 331 l 921 331 m 604 1331 l 947 1331 l 724 1042 l 446 1042 l 604 1331 z "},"ź":{"ha":1043,"x_min":-42,"x_max":1071,"o":"m 972 331 l 911 0 l -42 0 l 26 371 l 481 618 l 485 639 l 119 639 l 182 972 l 1071 972 l 999 586 l 547 354 l 543 331 l 972 331 m 632 1331 l 975 1331 l 751 1042 l 474 1042 l 632 1331 z "},"Ż":{"ha":990,"x_min":-42,"x_max":1018,"o":"m 921 331 l 858 0 l -42 0 l 28 371 l 469 631 l 471 639 l 119 639 l 182 972 l 1018 972 l 947 586 l 506 342 l 503 331 l 921 331 m 646 1374 q 768 1315 726 1374 q 796 1183 810 1257 q 728 1069 782 1113 q 603 1026 674 1026 q 485 1088 528 1026 q 456 1222 443 1149 q 522 1333 469 1292 q 646 1374 575 1374 z "},"ż":{"ha":1043,"x_min":-42,"x_max":1071,"o":"m 972 331 l 911 0 l -42 0 l 26 371 l 481 618 l 485 639 l 119 639 l 182 972 l 1071 972 l 999 586 l 547 354 l 543 331 l 972 331 m 688 1374 q 810 1315 768 1374 q 838 1183 851 1257 q 769 1069 824 1113 q 644 1026 715 1026 q 527 1088 569 1026 q 497 1222 485 1149 q 564 1333 511 1292 q 688 1374 617 1374 z "},"Ž":{"ha":990,"x_min":-42,"x_max":1079,"o":"m 921 331 l 858 0 l -42 0 l 28 371 l 469 631 l 471 639 l 119 639 l 182 972 l 1018 972 l 947 586 l 506 342 l 503 331 l 921 331 m 736 1331 l 1079 1331 l 815 1042 l 390 1042 l 257 1331 l 601 1331 l 622 1172 l 643 1172 l 736 1331 z "},"ž":{"ha":1079,"x_min":-42,"x_max":1107,"o":"m 972 331 l 911 0 l -42 0 l 26 371 l 481 618 l 485 639 l 119 639 l 182 972 l 1071 972 l 999 586 l 547 354 l 543 331 l 972 331 m 764 1331 l 1107 1331 l 843 1042 l 418 1042 l 285 1331 l 629 1331 l 650 1172 l 671 1172 l 764 1331 z "},"ſ":{"ha":999,"x_min":-28,"x_max":1036,"o":"m 678 1104 q 967 1003 899 1104 q 994 682 1036 903 l 664 682 q 675 758 676 731 q 644 785 674 785 q 622 782 632 785 q 606 772 613 779 q 594 758 599 764 q 586 739 590 753 q 581 719 582 725 q 576 694 579 714 q 571 671 572 675 l 446 0 l 103 0 l 169 357 l -28 357 l 29 661 l 226 661 q 228 671 228 669 q 265 836 247 774 q 315 956 283 899 q 392 1042 346 1013 q 508 1088 439 1071 q 678 1104 578 1104 z "},"Ǽ":{"ha":1614,"x_min":-62,"x_max":1656,"o":"m 1601 681 l 1150 681 l 1139 618 l 1546 618 l 1497 354 l 1089 354 l 1078 290 l 1529 290 l 1475 0 l 653 0 l 682 154 l 435 154 l 361 0 l -62 0 l 464 972 l 1656 972 l 1601 681 m 572 444 l 736 444 l 772 642 l 665 642 l 572 444 m 954 1331 l 1297 1331 l 1074 1042 l 796 1042 l 954 1331 z "},"ǽ":{"ha":1750,"x_min":-62,"x_max":1792,"o":"m 1738 682 l 1233 682 l 1221 618 l 1682 618 l 1633 354 l 1172 354 l 1161 292 l 1665 292 l 1611 0 l 736 0 l 765 154 l 449 154 l 375 0 l -62 0 l 478 972 l 1792 972 l 1738 682 m 586 444 l 818 444 l 856 642 l 679 642 l 586 444 m 1010 1331 l 1353 1331 l 1129 1042 l 851 1042 l 1010 1331 z "},"Ǿ":{"ha":1161,"x_min":3,"x_max":1161,"o":"m 1069 796 q 1122 444 1161 649 q 924 108 1085 243 q 528 -26 764 -26 q 168 83 303 -26 l 115 43 l 42 136 l 89 172 q 40 515 3 313 q 240 869 82 740 q 640 999 399 999 q 990 885 857 999 l 1047 929 l 1121 836 l 1069 796 m 425 494 q 425 439 421 465 l 672 633 q 600 650 642 650 q 483 609 528 650 q 425 494 439 568 m 739 475 q 740 536 744 504 l 493 340 q 560 322 525 322 q 677 360 629 322 q 739 475 725 399 m 640 1331 l 983 1331 l 760 1042 l 482 1042 l 640 1331 z "},"ǿ":{"ha":1242,"x_min":-1,"x_max":1246,"o":"m 1129 813 q 1203 444 1246 663 q 997 107 1165 240 q 567 -26 829 -26 q 193 74 335 -26 l 156 43 l 82 136 l 106 156 q 39 517 -1 299 q 244 872 82 744 q 681 999 407 999 q 1043 894 900 999 l 1086 929 l 1161 836 l 1129 813 m 438 496 q 442 421 431 456 l 718 639 q 640 650 682 650 q 438 496 467 650 m 807 475 q 803 554 814 522 l 526 335 q 600 322 558 322 q 807 475 778 322 m 696 1331 l 1039 1331 l 815 1042 l 538 1042 l 696 1331 z "},"Ș":{"ha":1017,"x_min":-7,"x_max":1013,"o":"m 460 -26 q 105 78 217 -26 q 19 328 -7 183 l 367 328 q 442 242 353 247 q 540 282 535 233 q 518 333 543 311 q 438 374 493 356 q 181 508 254 432 q 133 724 107 585 q 188 847 146 794 q 280 927 229 899 q 397 972 331 956 q 516 994 464 989 q 624 999 568 999 q 761 981 693 999 q 890 925 829 963 q 982 820 951 888 q 996 665 1013 753 l 651 665 q 639 722 658 701 q 586 742 619 742 q 507 697 515 742 q 507 681 506 689 q 515 667 508 674 q 527 656 521 661 q 545 644 533 650 q 567 635 557 639 q 593 625 576 631 q 620 616 610 619 q 650 607 631 613 q 681 597 669 601 q 858 515 806 557 q 936 276 964 431 q 782 48 908 122 q 460 -26 656 -26 m 288 -61 l 631 -61 l 406 -350 l 129 -350 l 288 -61 z "},"ș":{"ha":1054,"x_min":-7,"x_max":1051,"o":"m 1035 665 l 692 665 q 667 720 697 700 q 597 742 638 740 q 492 697 501 746 q 501 671 489 683 q 538 649 513 658 q 588 631 564 639 q 649 614 613 624 q 706 597 686 604 q 875 533 835 556 q 989 276 1021 450 q 485 -26 933 -26 q 116 80 239 -26 q 19 328 -7 186 l 365 328 q 388 265 358 283 q 468 242 417 246 q 579 282 571 233 q 565 331 585 315 q 464 374 544 347 q 306 433 369 404 q 192 503 243 463 q 124 599 142 544 q 118 724 106 653 q 636 999 169 999 q 778 981 706 999 q 916 925 850 963 q 1017 820 982 888 q 1035 665 1051 753 m 315 -61 l 658 -61 l 433 -350 l 157 -350 l 315 -61 z "},"ˆ":{"ha":864,"x_min":69,"x_max":892,"o":"m 547 764 l 526 922 l 506 922 l 413 764 l 69 764 l 333 1053 l 760 1053 l 892 764 l 547 764 z "},"ˇ":{"ha":836,"x_min":97,"x_max":919,"o":"m 576 1053 l 919 1053 l 656 764 l 231 764 l 97 1053 l 442 1053 l 463 894 l 483 894 l 576 1053 z "},"˘":{"ha":639,"x_min":79,"x_max":722,"o":"m 513 1060 l 722 1060 q 364 749 665 749 q 150 836 221 749 q 104 1060 79 924 l 315 1060 q 327 985 306 1011 q 394 958 349 958 q 513 1060 493 958 z "},"˙":{"ha":389,"x_min":88,"x_max":454,"o":"m 290 1096 q 413 1038 371 1096 q 440 906 454 979 q 372 792 426 835 q 247 749 318 749 q 130 810 172 749 q 100 944 88 871 q 167 1055 114 1014 q 290 1096 219 1096 z "},"˚":{"ha":428,"x_min":72,"x_max":524,"o":"m 329 1149 q 474 1081 425 1149 q 507 924 524 1014 q 428 795 492 842 q 268 749 364 749 q 124 815 175 749 q 88 969 72 881 q 329 1149 121 1149 m 250 909 q 256 900 250 909 q 288 890 263 890 q 331 905 313 890 q 353 943 349 919 q 345 988 357 969 q 306 1006 333 1006 q 243 953 253 1006 q 250 909 238 928 z "},"˛":{"ha":263,"x_min":-221,"x_max":151,"o":"m 151 0 q 92 -117 79 -76 q 151 -125 101 -146 l 117 -315 q 22 -352 79 -340 q -96 -350 -36 -364 q -179 -290 -156 -336 q -154 -124 -221 -210 q 0 0 -87 -39 l 151 0 z "},"˜":{"ha":624,"x_min":69,"x_max":707,"o":"m 533 1068 l 707 1068 q 686 967 694 1004 q 660 882 678 929 q 624 810 643 835 q 572 767 604 785 q 499 749 540 749 q 386 792 447 749 q 306 836 325 836 q 272 822 283 836 q 254 765 261 807 l 69 765 q 149 1011 100 933 q 297 1089 197 1089 q 376 1069 338 1089 q 442 1028 414 1049 q 488 1008 471 1008 q 533 1068 522 1008 z "},"˝":{"ha":856,"x_min":69,"x_max":946,"o":"m 228 1053 l 571 1053 l 347 764 l 69 764 l 228 1053 m 601 1053 l 946 1053 l 721 764 l 443 764 l 601 1053 z "},"Ẁ":{"ha":1783,"x_min":111,"x_max":1846,"o":"m 1422 972 l 1846 972 l 1378 0 l 928 0 l 885 483 l 874 483 l 646 0 l 208 0 l 111 972 l 508 972 l 533 411 l 539 411 l 774 972 l 1157 972 l 1185 411 l 1190 411 l 1422 972 m 1046 1331 l 1086 1042 l 835 1042 l 703 1331 l 1046 1331 z "},"ẁ":{"ha":1901,"x_min":111,"x_max":1964,"o":"m 1526 972 l 1964 972 l 1496 0 l 993 0 l 949 483 l 913 483 l 683 0 l 208 0 l 111 972 l 507 972 l 533 411 l 564 411 l 800 972 l 1235 972 l 1264 411 l 1294 411 l 1526 972 m 1101 1331 l 1142 1042 l 890 1042 l 758 1331 l 1101 1331 z "},"Ẃ":{"ha":1783,"x_min":111,"x_max":1846,"o":"m 1422 972 l 1846 972 l 1378 0 l 928 0 l 885 483 l 874 483 l 646 0 l 208 0 l 111 972 l 508 972 l 533 411 l 539 411 l 774 972 l 1157 972 l 1185 411 l 1190 411 l 1422 972 m 997 1331 l 1340 1331 l 1117 1042 l 839 1042 l 997 1331 z "},"ẃ":{"ha":1901,"x_min":111,"x_max":1964,"o":"m 1526 972 l 1964 972 l 1496 0 l 993 0 l 949 483 l 913 483 l 683 0 l 208 0 l 111 972 l 507 972 l 533 411 l 564 411 l 800 972 l 1235 972 l 1264 411 l 1294 411 l 1526 972 m 1053 1331 l 1396 1331 l 1172 1042 l 894 1042 l 1053 1331 z "},"Ẅ":{"ha":1783,"x_min":111,"x_max":1846,"o":"m 1422 972 l 1846 972 l 1378 0 l 928 0 l 885 483 l 874 483 l 646 0 l 208 0 l 111 972 l 508 972 l 533 411 l 539 411 l 774 972 l 1157 972 l 1185 411 l 1190 411 l 1422 972 m 857 1374 q 978 1316 938 1374 q 1007 1183 1019 1258 q 939 1069 993 1113 q 814 1026 885 1026 q 697 1088 739 1026 q 667 1222 654 1149 q 733 1333 681 1292 q 857 1374 786 1374 m 1251 1374 q 1373 1316 1332 1374 q 1400 1183 1414 1258 q 1332 1069 1386 1113 q 1208 1026 1278 1026 q 1090 1088 1133 1026 q 1061 1222 1047 1149 q 1127 1333 1075 1292 q 1251 1374 1179 1374 z "},"ẅ":{"ha":1901,"x_min":111,"x_max":1964,"o":"m 1526 972 l 1964 972 l 1496 0 l 993 0 l 949 483 l 913 483 l 683 0 l 208 0 l 111 972 l 507 972 l 533 411 l 564 411 l 800 972 l 1235 972 l 1264 411 l 1294 411 l 1526 972 m 885 1374 q 1006 1316 965 1374 q 1035 1183 1047 1258 q 967 1069 1021 1113 q 842 1026 913 1026 q 724 1088 767 1026 q 694 1222 682 1149 q 761 1333 708 1292 q 885 1374 814 1374 m 1279 1374 q 1401 1316 1360 1374 q 1428 1183 1442 1258 q 1360 1069 1414 1113 q 1236 1026 1306 1026 q 1118 1088 1161 1026 q 1089 1222 1075 1149 q 1155 1333 1103 1292 q 1279 1374 1207 1374 z "},"Ỳ":{"ha":1099,"x_min":111,"x_max":1161,"o":"m 1161 972 l 714 272 l 663 0 l 293 0 l 343 272 l 111 972 l 496 972 l 569 604 l 581 604 l 738 972 l 1161 972 m 704 1331 l 744 1042 l 493 1042 l 361 1331 l 704 1331 z "},"ỳ":{"ha":1178,"x_min":111,"x_max":1240,"o":"m 1240 972 l 765 272 l 715 0 l 318 0 l 369 272 l 111 972 l 494 972 l 592 618 l 631 618 l 817 972 l 1240 972 m 746 1331 l 786 1042 l 535 1042 l 403 1331 l 746 1331 z "},"–":{"ha":864,"x_min":0,"x_max":822,"o":"m 47 513 l 822 513 l 775 261 l 0 261 l 47 513 z "},"—":{"ha":956,"x_min":0,"x_max":914,"o":"m 47 513 l 914 513 l 867 261 l 0 261 l 47 513 z "},"‘":{"ha":507,"x_min":69,"x_max":549,"o":"m 69 590 l 74 619 l 297 972 l 549 972 l 403 590 l 69 590 z "},"’":{"ha":479,"x_min":42,"x_max":521,"o":"m 521 972 l 515 943 l 293 590 l 42 590 l 188 972 l 521 972 z "},"‚":{"ha":481,"x_min":-111,"x_max":369,"o":"m 369 164 l 364 135 l 140 -218 l -111 -218 l 35 164 l 369 164 z "},"“":{"ha":888,"x_min":69,"x_max":929,"o":"m 69 590 l 75 619 l 299 972 l 550 972 l 404 590 l 69 590 m 450 590 l 454 619 l 678 972 l 929 972 l 783 590 l 450 590 z "},"”":{"ha":858,"x_min":42,"x_max":900,"o":"m 900 972 l 894 943 l 672 590 l 421 590 l 567 972 l 900 972 m 521 972 l 515 943 l 293 590 l 42 590 l 188 972 l 521 972 z "},"„":{"ha":860,"x_min":-111,"x_max":749,"o":"m 749 164 l 743 135 l 519 -218 l 268 -218 l 414 164 l 749 164 m 369 164 l 364 135 l 140 -218 l -111 -218 l 35 164 l 369 164 z "},"•":{"ha":446,"x_min":46,"x_max":413,"o":"m 250 739 q 372 681 331 739 q 400 549 413 624 q 332 435 386 478 q 207 392 278 392 q 89 453 132 392 q 60 588 46 514 q 126 698 74 657 q 250 739 179 739 z "},"…":{"ha":1317,"x_min":-37,"x_max":1221,"o":"m 167 321 q 288 263 247 321 q 317 131 329 206 q 249 17 303 60 q 124 -26 194 -26 q 6 35 49 -26 q -24 169 -37 96 q 43 280 -10 239 q 167 321 96 321 m 613 321 q 734 263 693 321 q 763 131 775 206 q 694 17 749 60 q 569 -26 640 -26 q 451 35 494 -26 q 422 169 408 96 q 489 280 436 239 q 613 321 542 321 m 1058 321 q 1180 263 1139 321 q 1208 131 1221 206 q 1140 17 1194 60 q 1015 -26 1086 -26 q 897 35 940 -26 q 868 169 854 96 q 935 280 882 239 q 1058 321 988 321 z "},"‰":{"ha":2106,"x_min":67,"x_max":2039,"o":"m 1153 513 q 1349 422 1283 513 q 1393 211 1415 332 q 1287 37 1372 100 q 1072 -26 1201 -26 q 876 63 946 -26 q 828 272 806 151 q 1153 513 874 513 m 1190 236 q 1181 299 1197 272 q 1122 326 1164 326 q 1063 306 1086 326 q 1032 250 1039 285 q 1044 188 1025 214 q 1097 161 1063 161 q 1157 182 1131 161 q 1190 236 1183 203 m 1004 972 l 1215 972 l 475 0 l 264 0 l 1004 972 m 654 696 q 547 522 633 585 q 332 460 461 460 q 136 549 206 460 q 89 757 67 638 q 414 999 132 999 q 610 908 543 999 q 654 696 676 817 m 293 735 q 305 672 286 699 q 358 646 324 646 q 418 667 392 646 q 450 721 444 688 q 440 785 457 758 q 382 811 424 811 q 323 790 346 811 q 293 735 300 769 m 1776 513 q 1973 422 1907 513 q 2017 211 2039 332 q 1910 37 1996 100 q 1696 -26 1825 -26 q 1499 63 1569 -26 q 1451 272 1429 151 q 1776 513 1497 513 m 1814 236 q 1804 299 1821 272 q 1746 326 1788 326 q 1686 306 1710 326 q 1656 250 1663 285 q 1667 188 1649 214 q 1721 161 1686 161 q 1781 182 1754 161 q 1814 236 1807 203 z "},"‹":{"ha":596,"x_min":14,"x_max":568,"o":"m 568 678 l 561 644 l 351 386 l 465 129 l 460 96 l 139 96 l 14 386 l 240 678 l 568 678 z "},"›":{"ha":563,"x_min":-28,"x_max":521,"o":"m 396 678 l 521 386 l 294 96 l -28 96 l -21 129 l 182 386 l 75 644 l 81 678 l 396 678 z "},"⁄":{"ha":575,"x_min":-83,"x_max":631,"o":"m 393 1039 l 631 1039 l 154 -132 l -83 -132 l 393 1039 z "},"€":{"ha":1256,"x_min":0,"x_max":1250,"o":"m 838 551 q 795 623 833 597 q 701 649 757 649 q 558 592 615 649 l 782 592 l 715 499 l 510 499 q 507 474 507 482 l 703 474 l 636 381 l 533 381 q 649 324 575 324 q 814 421 757 324 l 1206 421 q 596 -26 1090 -26 q 265 84 404 -26 q 115 381 126 194 l 0 381 l 53 474 l 118 474 l 122 499 l 0 499 l 53 592 l 144 592 q 349 890 201 781 q 715 999 497 999 q 1101 873 951 999 q 1224 551 1250 747 l 838 551 z "},"₽":{"ha":1097,"x_min":-28,"x_max":1107,"o":"m 708 972 q 1006 869 906 972 q 1075 596 1107 765 q 932 328 1042 411 q 603 246 822 246 l 476 246 l 471 213 l 715 213 l 689 67 l 443 67 l 431 0 l 61 0 l 74 67 l -28 67 l -1 213 l 100 213 l 114 286 l 13 286 l 40 431 l 140 431 l 242 972 l 708 972 m 628 668 l 556 668 l 528 524 l 597 524 q 680 540 653 524 q 714 596 707 556 q 700 651 719 635 q 628 668 681 668 z "},"₿":{"ha":1032,"x_min":-28,"x_max":1017,"o":"m 1000 724 q 933 586 989 643 q 821 517 878 529 l 819 506 q 929 421 893 489 q 947 265 965 353 q 583 0 890 0 l 553 0 l 522 -169 l 376 -169 l 408 0 l 375 0 l 343 -169 l 199 -169 l 231 0 l -28 0 l 153 972 l 411 972 l 443 1140 l 588 1140 l 556 972 l 589 972 l 621 1140 l 765 1140 l 733 972 q 947 908 876 969 q 1000 724 1017 846 m 594 315 q 577 367 601 351 q 518 383 553 383 l 374 383 l 350 249 l 501 249 q 565 263 543 249 q 594 315 588 278 m 611 679 q 601 722 617 710 q 547 735 585 735 l 440 735 l 418 622 l 536 622 q 611 679 601 622 z "},"№":{"ha":1733,"x_min":-28,"x_max":1719,"o":"m 1506 999 q 1665 925 1611 999 q 1701 753 1719 851 q 1614 613 1683 664 q 1440 563 1544 563 q 1281 634 1338 563 q 1243 803 1225 706 q 1506 999 1281 999 m 1532 774 q 1525 822 1538 801 q 1481 843 1513 843 q 1413 785 1422 843 q 1421 738 1407 758 q 1461 717 1435 717 q 1508 733 1488 717 q 1532 774 1528 749 m 1219 972 l 1136 518 l 1696 518 l 1669 374 l 1108 374 l 1039 0 l 664 0 l 440 483 l 432 483 l 343 0 l -28 0 l 153 972 l 528 972 l 754 489 l 760 489 l 850 972 l 1219 972 z "},"−":{"ha":771,"x_min":0,"x_max":729,"o":"m 47 513 l 729 513 l 682 261 l 0 261 l 47 513 z "},"≈":{"ha":889,"x_min":-28,"x_max":889,"o":"m 607 442 q 492 464 544 442 q 405 508 439 486 q 353 529 371 529 q 319 515 331 529 q 303 460 308 500 l 56 460 q 172 696 83 608 q 372 783 261 783 q 478 763 432 783 q 556 723 524 743 q 614 703 588 703 q 660 763 650 703 l 889 763 q 790 532 863 622 q 607 442 718 442 m 524 79 q 408 101 461 79 q 322 144 356 122 q 269 167 288 167 q 236 152 247 167 q 219 97 225 138 l -28 97 q 89 333 0 246 q 289 419 178 419 q 394 400 349 419 q 472 360 440 381 q 531 340 504 340 q 576 400 567 340 l 806 400 q 707 169 779 260 q 524 79 635 79 z "},"≠":{"ha":833,"x_min":0,"x_max":792,"o":"m 746 411 l 517 411 l 482 363 l 736 363 l 689 111 l 304 111 l 211 -21 l 0 -21 l 93 111 l 7 111 l 54 363 l 271 363 l 306 411 l 63 411 l 110 663 l 482 663 l 576 796 l 788 796 l 694 663 l 792 663 l 746 411 z "},"≤":{"ha":893,"x_min":-42,"x_max":907,"o":"m 758 174 l 6 174 l -42 -78 l 711 -78 l 758 174 m 768 228 l 44 386 l 125 813 l 907 971 l 853 681 l 388 599 l 383 572 l 822 506 l 768 228 z "},"≥":{"ha":878,"x_min":-42,"x_max":878,"o":"m -42 -78 l 711 -78 l 758 174 l 6 174 l -42 -78 m 154 971 l 878 813 l 797 386 l 15 228 l 69 518 l 535 599 l 539 625 l 100 693 l 154 971 z "},"":{"ha":418,"x_min":-208,"x_max":293,"o":"m -50 -61 l 293 -61 l 68 -350 l -208 -350 l -50 -61 z "}}}
